<svg width="30" height="30" viewBox="0 0 30 30" fill="none" xmlns="http://www.w3.org/2000/svg">
<g filter="url(#filter0_d_114_30001)">
<path d="M14.2401 4.01037C12.102 4.16549 10.0896 4.91385 8.38113 6.19046C7.57828 6.78788 6.78171 7.58445 6.18428 8.38731C5.08795 9.85468 4.36684 11.5778 4.10481 13.3554C4.01048 13.9906 4 14.1624 4 15.0009C4 15.8227 4.01048 16.0029 4.09643 16.5941C4.53873 19.6546 6.27651 22.4174 8.85279 24.1468C9.41248 24.5241 10.2405 24.9643 10.8547 25.2117C11.8001 25.5911 12.735 25.8259 13.823 25.9559C14.2066 26.002 15.3574 26.0188 15.7892 25.9873C20.7594 25.6058 24.8261 22.0108 25.7988 17.1391C25.9182 16.5459 26 15.7891 26 15.2881V15.0009H25.2076H24.4132L24.4006 15.4034C24.3188 18.0656 22.9814 20.6859 20.8433 22.3797C19.378 23.5389 17.6046 24.237 15.7431 24.39C15.3972 24.4193 14.5923 24.4193 14.2464 24.39C11.4919 24.1636 8.97856 22.7507 7.36446 20.5182C6.35407 19.12 5.75665 17.508 5.60362 15.7556C5.56798 15.3678 5.57427 14.5482 5.6141 14.131C5.82792 11.888 6.82363 9.80856 8.42306 8.25525C9.99733 6.725 11.9741 5.81942 14.1982 5.6077C14.5378 5.57626 15.4559 5.57626 15.7913 5.6077C18.0196 5.82152 19.9985 6.72919 21.5748 8.26154C21.8222 8.50261 22.2268 8.94491 22.2268 8.97635C22.2268 8.98684 20.2458 10.9762 17.8247 13.3973L13.4226 17.7994L11.3515 15.7283C10.2132 14.5901 9.27203 13.6593 9.26155 13.6593C9.24898 13.6593 8.99114 13.9088 8.68509 14.2148L8.12959 14.7704L10.5298 17.1705C13.28 19.9229 13.0348 19.707 13.4226 19.707C13.8188 19.707 13.2297 20.2583 18.9483 14.5356C24.6374 8.8422 24.0819 9.43543 24.0819 9.04763C24.0819 8.86945 24.0736 8.81075 24.0379 8.73319C23.9834 8.6158 23.6208 8.13157 23.3462 7.81085C23.0799 7.5006 22.493 6.91366 22.1849 6.64953C20.9334 5.58045 19.4744 4.80694 17.8918 4.37302C17.2776 4.20322 16.5376 4.07535 15.8437 4.01666C15.6173 3.99779 14.4749 3.9936 14.2401 4.01037Z" fill="white"/>
</g>
<defs>
<filter id="filter0_d_114_30001" x="0" y="-0.00012207" width="30" height="30.0035" filterUnits="userSpaceOnUse" color-interpolation-filters="sRGB">
<feFlood flood-opacity="0" result="BackgroundImageFix"/>
<feColorMatrix in="SourceAlpha" type="matrix" values="0 0 0 0 0 0 0 0 0 0 0 0 0 0 0 0 0 0 127 0" result="hardAlpha"/>
<feOffset/>
<feGaussianBlur stdDeviation="2"/>
<feComposite in2="hardAlpha" operator="out"/>
<feColorMatrix type="matrix" values="0 0 0 0 1 0 0 0 0 0.666667 0 0 0 0 0 0 0 0 1 0"/>
<feBlend mode="normal" in2="BackgroundImageFix" result="effect1_dropShadow_114_30001"/>
<feBlend mode="normal" in="SourceGraphic" in2="effect1_dropShadow_114_30001" result="shape"/>
</filter>
</defs>
</svg>
