<svg width="28" height="28" viewBox="0 0 28 28" fill="none" xmlns="http://www.w3.org/2000/svg">
<g clip-path="url(#clip0_4_793)">
<path d="M19.4607 0.0325699C19.2928 0.0626335 19.115 0.127771 18.9596 0.215456C18.7692 0.323185 18.5137 0.586241 18.406 0.791676L18.3183 0.95953L18.2005 0.799191C17.7796 0.225477 17.023 0.0476017 16.3541 0.363268C16.0134 0.526114 15.6827 0.947004 15.5925 1.33783C15.5725 1.42301 15.5524 1.49566 15.5474 1.49817C15.5424 1.50318 15.4798 1.45808 15.4071 1.39545C14.7607 0.859318 13.8338 0.952015 13.2951 1.6059C13.1072 1.83388 12.9745 2.20466 12.972 2.5053V2.63558L12.8292 2.54789C12.5962 2.40759 12.3757 2.34997 12.0701 2.34997C11.8671 2.34997 11.7669 2.3625 11.6266 2.40759C11.3961 2.48025 11.1005 2.67817 10.9502 2.85855C10.7072 3.15668 10.5719 3.58759 10.607 3.95086C10.622 4.1137 10.6195 4.12372 10.5769 4.10368C10.5493 4.09366 10.4441 4.05608 10.3414 4.02351C10.1234 3.95086 9.78772 3.93583 9.56475 3.98844C9.03613 4.1137 8.58518 4.56466 8.45992 5.09328C8.41733 5.27115 8.42234 5.62189 8.46994 5.78975C8.50251 5.91251 8.50251 5.92253 8.46493 5.90499C8.24446 5.8148 7.82858 5.79225 7.57304 5.85739C7.29996 5.92754 7.11206 6.03777 6.89661 6.25573C6.67113 6.48372 6.5609 6.67412 6.49325 6.96223C6.43814 7.19522 6.45568 7.55598 6.53334 7.75641C6.5634 7.83658 6.58345 7.90673 6.57843 7.91174C6.57593 7.91675 6.52081 7.90923 6.45818 7.89921C6.02476 7.81403 5.54124 7.95433 5.21555 8.25747C4.89487 8.5556 4.72952 8.91636 4.72702 9.32974C4.72702 9.46001 4.73955 9.62035 4.75708 9.6905C4.77963 9.78821 4.89487 10.0663 4.94748 10.154C4.9525 10.1615 4.83976 10.1665 4.69695 10.169C4.48902 10.1715 4.40885 10.184 4.27356 10.2341C3.78753 10.417 3.43929 10.7928 3.31403 11.2688C3.26643 11.4592 3.26643 11.805 3.31403 11.9954C3.36664 12.1958 3.4894 12.4388 3.60715 12.5691C3.65976 12.6292 3.70235 12.6868 3.70235 12.6944C3.70235 12.7019 3.67229 12.7094 3.63721 12.7094C3.52447 12.7094 3.26893 12.787 3.11361 12.8672C2.88562 12.9875 2.60252 13.2806 2.4948 13.5111C2.37454 13.7616 2.33696 13.9295 2.34197 14.2C2.34698 14.6435 2.54991 15.0543 2.90567 15.3399L3.02341 15.4326L2.81297 15.5379C2.51734 15.6832 2.3094 15.8986 2.16159 16.2043C1.94614 16.6477 1.94614 17.0761 2.16159 17.5146C2.31442 17.8202 2.66516 18.1459 2.93072 18.2261C2.98333 18.2411 3.02341 18.2611 3.02091 18.2712C3.0159 18.2812 2.95076 18.3388 2.8756 18.3989C2.70023 18.5417 2.50231 18.8348 2.42715 19.0603C2.25178 19.5914 2.38957 20.1702 2.78541 20.5635C3.04847 20.8266 3.33157 20.9593 3.69233 20.9994L3.84766 21.0145L3.74995 21.1773C3.59212 21.4328 3.53951 21.6408 3.54201 21.9665C3.54201 22.197 3.55454 22.2696 3.60715 22.4099C3.78503 22.8809 4.13827 23.2216 4.59173 23.3644C4.83475 23.4396 5.20303 23.4371 5.4285 23.3594C5.51619 23.3294 5.59135 23.3093 5.59886 23.3143C5.60387 23.3193 5.59636 23.3744 5.58383 23.4346C5.51869 23.7102 5.57381 24.0759 5.72413 24.3816C5.83937 24.6171 6.09992 24.8851 6.3254 25.0054C6.86905 25.291 7.54548 25.2259 7.98391 24.8426C8.05406 24.7799 8.11669 24.7323 8.1217 24.7373C8.12421 24.7423 8.14174 24.8075 8.15677 24.8826C8.262 25.3511 8.66284 25.7845 9.13885 25.9374C9.28666 25.9875 9.37936 26 9.57728 26C9.8704 26 10.0057 25.9674 10.2712 25.8321C10.5919 25.6668 10.885 25.3336 10.9853 25.0204C11.0078 24.9453 11.0329 24.8851 11.0429 24.8851C11.0504 24.8851 11.0905 24.9202 11.1331 24.9628C11.2358 25.073 11.5039 25.2434 11.6817 25.311C11.8696 25.3812 12.2504 25.4062 12.4759 25.3637C12.9043 25.281 13.3077 24.9703 13.4956 24.577C13.681 24.1912 13.6985 23.8379 13.5607 23.387C13.5432 23.3294 13.5432 23.3294 13.6759 23.3494C14.4476 23.4646 15.1741 22.9811 15.3545 22.2295C15.4046 22.0191 15.3946 21.6959 15.3294 21.4754C15.2568 21.2374 15.1566 21.0621 14.9862 20.8792C14.8534 20.7364 14.8434 20.7013 14.9286 20.7013C14.9511 20.7013 15.0639 20.6537 15.1791 20.5961C15.9232 20.2253 16.2188 19.3234 15.833 18.5868C15.7128 18.3538 15.4472 18.0883 15.2192 17.973L15.0539 17.8878L15.2242 17.7676C15.6025 17.502 15.828 17.0636 15.828 16.5951C15.828 16.1642 15.6902 15.826 15.3896 15.5253C15.2593 15.3926 15.1641 15.3224 15.0138 15.2498L14.8134 15.1546L15.0288 14.9391C15.347 14.6209 15.4773 14.3153 15.4773 13.8869C15.4773 13.6338 15.4347 13.461 15.3144 13.2155C15.2017 12.99 14.9511 12.7319 14.7307 12.6142C14.6455 12.5691 14.5754 12.5265 14.5754 12.5215C14.5754 12.514 14.623 12.4864 14.6831 12.4564C14.7407 12.4263 14.8685 12.3211 14.9662 12.2234C15.3345 11.8551 15.4798 11.339 15.3545 10.8505C15.2869 10.5899 15.1791 10.387 15.0113 10.2066C14.9336 10.1214 14.8735 10.0488 14.8785 10.0437C14.8835 10.0387 14.9637 10.0112 15.0564 9.98111C15.4773 9.84332 15.8205 9.5001 15.9708 9.0742C16.076 8.77106 16.0735 8.35267 15.9658 8.07207C15.9533 8.0345 15.9658 8.0345 16.1336 8.06706C16.5921 8.15726 17.0731 7.99692 17.4339 7.63615C17.5892 7.47832 17.7496 7.20274 17.8072 6.99229L17.8373 6.87454L17.9675 6.98478C18.4185 7.38312 19.0648 7.46078 19.6085 7.1852C19.6987 7.1401 19.829 7.05492 19.8941 6.9973C19.9592 6.93968 20.0169 6.89458 20.0194 6.8996C20.0244 6.90461 20.0469 6.97726 20.072 7.05993C20.1371 7.27288 20.2173 7.4207 20.3601 7.59356C20.6707 7.96685 21.242 8.18732 21.6854 8.10464C21.8031 8.0846 21.8157 8.0846 21.8006 8.12218C21.6679 8.42282 21.6278 8.81866 21.7029 9.10175C21.8958 9.84833 22.6449 10.3394 23.379 10.2016C23.4591 10.1865 23.5268 10.179 23.5318 10.184C23.5368 10.1891 23.5218 10.2692 23.5017 10.3669C23.4291 10.7051 23.5118 11.131 23.7047 11.4217L23.7949 11.5569L23.7247 11.5695C23.3013 11.6572 23.0758 11.7724 22.7902 12.058C22.6073 12.2384 22.5547 12.311 22.4595 12.509C22.1865 13.0777 22.2115 13.709 22.5272 14.2025C22.6199 14.3453 22.6349 14.3829 22.6098 14.4155C22.5923 14.438 22.5247 14.5232 22.4595 14.6034C22.2892 14.8113 21.8583 15.4627 21.6152 15.8786C21.3522 16.3295 20.8085 17.4193 20.533 18.0457C20.1271 18.9701 19.6035 20.3255 19.6035 20.4583C19.6035 20.4959 19.6235 20.551 19.6511 20.576C19.7012 20.6261 22.7025 21.7034 22.7902 21.7034C22.913 21.7034 22.9606 21.6107 23.1911 20.9142C23.9126 18.7447 24.326 16.8281 24.3861 15.3976L24.4036 14.9942L24.574 14.9391C25.1126 14.7662 25.541 14.3003 25.7014 13.724C25.7665 13.4835 25.7715 13.1002 25.7114 12.8722C25.6563 12.6618 25.4934 12.3386 25.3707 12.2008C25.3131 12.1332 25.2705 12.078 25.2755 12.0755C25.2805 12.073 25.3632 12.043 25.4584 12.0129C26.24 11.7499 26.6484 10.8454 26.3352 10.0688C26.3027 9.98612 26.2751 9.91848 26.2751 9.91598C26.2751 9.91347 26.3503 9.91598 26.4455 9.92099C27.1495 9.96859 27.8409 9.41993 27.9662 8.71343C28.0113 8.4604 28.0113 8.37772 27.9662 8.16227C27.866 7.68125 27.5077 7.25034 27.0743 7.08749L26.9616 7.0449L27.1394 6.86452C27.4351 6.56388 27.5779 6.22317 27.5779 5.80729C27.5779 5.41896 27.4451 5.09328 27.1695 4.80015C26.8814 4.49701 26.5131 4.34168 26.0697 4.34168H25.8542L25.9118 4.21893C26.3052 3.4047 25.8367 2.4101 24.9473 2.1746C24.6517 2.09694 24.2258 2.13702 23.9276 2.27481L23.7949 2.33494V2.11698C23.7949 1.85643 23.7523 1.68857 23.6295 1.43804C23.4591 1.09482 23.1059 0.811718 22.705 0.693968C22.2265 0.556177 21.6077 0.729042 21.2695 1.09482L21.1668 1.20505L21.1167 1.0397C20.9789 0.593756 20.6382 0.25053 20.1822 0.0977077C19.9718 0.0275593 19.6461 -0.00250435 19.4607 0.0325699ZM19.8891 0.433416C20.7659 0.601273 21.0841 1.63346 20.4528 2.26229C20.0469 2.66814 19.378 2.66814 18.9696 2.2673C18.5362 1.83889 18.5287 1.15995 18.9521 0.736559C19.1124 0.578724 19.2753 0.488533 19.4857 0.443438C19.6636 0.403353 19.7237 0.403353 19.8891 0.433416ZM17.3287 0.656389C17.5341 0.721527 17.6744 0.806707 17.8172 0.957026C18.3709 1.55078 18.0778 2.52534 17.2811 2.72827C16.6172 2.89863 15.9533 2.37753 15.9533 1.68607C15.9533 0.969551 16.6547 0.445944 17.3287 0.656389ZM22.7677 1.15244C22.9706 1.25014 23.1134 1.3729 23.2186 1.53575C23.4366 1.87647 23.4516 2.33995 23.2537 2.67817C23.166 2.82848 22.9405 3.03141 22.7802 3.10407C22.5823 3.19426 22.3593 3.22683 22.1664 3.19426C21.7079 3.11158 21.3747 2.79592 21.2745 2.33995C21.1593 1.82636 21.4674 1.29273 21.981 1.10985C22.1013 1.06976 22.1739 1.05974 22.3668 1.06726C22.5723 1.07477 22.6274 1.08479 22.7677 1.15244ZM14.7507 1.49065C15.0463 1.57834 15.2994 1.7963 15.4347 2.0819C15.5098 2.23974 15.5148 2.2673 15.5148 2.52534C15.5148 2.78339 15.5098 2.81095 15.4347 2.96878C15.2368 3.38967 14.871 3.60763 14.4025 3.58508C14.2246 3.57757 14.1545 3.56003 14.0167 3.4974C13.3302 3.17422 13.1699 2.32993 13.6885 1.78377C13.9691 1.49316 14.3749 1.38042 14.7507 1.49065ZM18.5964 2.43515C18.7868 2.66564 19.0749 2.85354 19.3479 2.92619C19.5383 2.97379 19.9091 2.97379 20.097 2.92619C20.315 2.86857 20.5755 2.72326 20.7409 2.56543L20.8837 2.42513L20.9263 2.56292C21.0265 2.8836 21.2169 3.14415 21.4975 3.33957C21.9309 3.64521 22.5247 3.69031 22.9982 3.4498L23.1184 3.38967V3.61014C23.1184 4.03103 23.2487 4.34669 23.5443 4.64482C23.6871 4.78763 23.7823 4.85778 23.9226 4.92542C24.1606 5.04066 24.4763 5.1058 24.6842 5.08325L24.8396 5.06822L24.7819 5.19098C24.6467 5.47157 24.6066 5.88244 24.6842 6.18308C24.802 6.63153 25.1678 7.04741 25.5736 7.19021L25.6864 7.2303L25.496 7.4207C25.035 7.88418 24.9323 8.48044 25.2078 9.12681C25.2204 9.15938 25.1878 9.16439 24.9799 9.16439C24.8446 9.16439 24.6968 9.1719 24.6492 9.18192C24.5765 9.19946 24.569 9.19695 24.584 9.15687C24.6266 9.04413 24.6517 8.82116 24.6366 8.64328C24.5991 8.11717 24.2809 7.65119 23.8074 7.4232C23.5343 7.29293 23.389 7.26286 23.0884 7.27789C22.8679 7.28792 22.8428 7.28541 22.8579 7.25034C23.1034 6.6641 22.9907 6.04028 22.5547 5.60686C22.2566 5.30622 21.9234 5.16843 21.5025 5.16843C21.1317 5.16843 20.8937 5.25111 20.578 5.49412L20.4152 5.61939L20.3876 5.51166C20.1922 4.74754 19.4532 4.27655 18.669 4.41935C18.5888 4.43438 18.426 4.4895 18.3108 4.54461C17.9375 4.71998 17.6168 5.1058 17.5291 5.48661L17.499 5.61438L17.3462 5.48661C17.1433 5.31875 16.8852 5.1985 16.6247 5.1534C15.8781 5.02062 15.1315 5.49913 14.9386 6.23569C14.8885 6.4286 14.8885 6.77684 14.9386 6.97225C14.9612 7.05743 14.9737 7.13259 14.9687 7.1401C14.9612 7.14511 14.8835 7.1376 14.7983 7.12257C14.1945 7.00983 13.5331 7.35806 13.25 7.93428C12.982 8.48545 13.0722 9.13432 13.483 9.57275C13.5632 9.65793 13.6258 9.73309 13.6208 9.7381C13.6158 9.74311 13.5557 9.76065 13.4855 9.77568C13.3052 9.82077 13.0822 9.94604 12.9193 10.0989C12.4183 10.5623 12.298 11.2839 12.6162 11.8927C12.7289 12.1081 12.9845 12.3687 13.1799 12.4714C13.2576 12.514 13.3227 12.5516 13.3227 12.5591C13.3227 12.5666 13.2651 12.6042 13.1949 12.6468C13.0371 12.7394 12.8041 12.985 12.7014 13.1628C12.4709 13.5712 12.4534 14.1324 12.6563 14.5332C12.7565 14.7312 12.9269 14.9366 13.0847 15.0569C13.2325 15.1696 13.4555 15.2898 13.5181 15.2898C13.5707 15.2898 13.5507 15.3249 13.458 15.3876C13.3152 15.4853 13.1098 15.7283 13.0271 15.8986C12.9168 16.1241 12.8717 16.3195 12.8717 16.5851C12.8717 17.006 13.0271 17.3567 13.3503 17.6574C13.4405 17.74 13.5807 17.8427 13.6659 17.8828L13.8188 17.958L13.6985 18.0382C13.4455 18.2085 13.1924 18.5367 13.1047 18.8098C13.0446 19.0002 13.0321 19.4286 13.0822 19.624C13.1448 19.8695 13.2651 20.085 13.443 20.2779C13.5707 20.4157 13.5933 20.4508 13.5507 20.4508C13.473 20.4508 13.2601 20.541 13.1047 20.6412C12.8216 20.8215 12.6012 21.1172 12.4884 21.4604C12.4008 21.731 12.4208 22.1393 12.536 22.44C12.5486 22.47 12.5335 22.4725 12.4408 22.45C12.278 22.4124 11.9072 22.44 11.7193 22.5051C11.2784 22.6554 10.9076 23.0287 10.7698 23.4621L10.7397 23.5548L10.5769 23.4195C10.2813 23.1665 9.98063 23.0563 9.59732 23.0563C9.23405 23.0563 8.93592 23.1615 8.65533 23.392L8.51754 23.5022L8.47745 23.3419C8.34718 22.8032 7.94382 22.4074 7.38514 22.2646C7.1747 22.212 6.80642 22.227 6.60098 22.2972L6.45568 22.3473L6.47572 22.207C6.52332 21.8663 6.48323 21.5556 6.35296 21.29C6.12247 20.819 5.69657 20.5259 5.15041 20.4608L5.01012 20.4458L5.09029 20.3155C5.24061 20.075 5.30073 19.8921 5.32077 19.6115C5.36336 19.0303 5.03267 18.4565 4.51156 18.206L4.31364 18.1083L4.51908 17.9079C4.68443 17.7475 4.74456 17.6674 4.82473 17.4995C5.1429 16.8431 4.93997 16.0389 4.35623 15.6331C4.32116 15.6105 4.29861 15.588 4.30613 15.583C4.31114 15.578 4.40384 15.5329 4.51156 15.4802C4.87233 15.3049 5.16545 14.9391 5.27067 14.5357C5.32077 14.3428 5.32579 14.0247 5.2832 13.8368C5.23559 13.6414 5.10031 13.3658 4.98256 13.233L4.88235 13.1177L5.08027 13.0752C5.36838 13.015 5.60888 12.8823 5.82183 12.6718C6.27028 12.2259 6.38052 11.567 6.09992 10.9983L6.01725 10.8304H6.21767C6.63606 10.8304 6.97678 10.6876 7.27491 10.392C7.71334 9.95606 7.82858 9.32723 7.57554 8.746C7.55801 8.70842 7.56552 8.70592 7.65321 8.73097C7.78599 8.77106 8.14675 8.76855 8.3121 8.72846C8.8332 8.6032 9.27915 8.15976 9.40191 7.64618C9.45953 7.40066 9.44951 7.08499 9.37435 6.84197C9.36433 6.8069 9.37936 6.8069 9.51966 6.852C9.76267 6.92715 10.1209 6.92214 10.374 6.83696C10.8274 6.68414 11.1706 6.35595 11.3185 5.93505C11.3911 5.73463 11.4212 5.47909 11.3986 5.28368C11.3786 5.13586 11.3811 5.11833 11.4162 5.13336C11.7819 5.29119 12.1151 5.33128 12.4308 5.25863C13.0822 5.1058 13.5732 4.50453 13.5732 3.86067V3.69281L13.706 3.7805C14.157 4.07863 14.7783 4.07863 15.2468 3.783C15.4272 3.67027 15.6376 3.45982 15.7403 3.28946C15.833 3.13663 15.9282 2.87609 15.9282 2.77587C15.9282 2.7408 15.9332 2.71324 15.9407 2.71324C15.9483 2.71324 16.0309 2.77086 16.1236 2.84352C16.5896 3.20177 17.1683 3.2619 17.697 3.01137C17.9299 2.89863 18.2456 2.58797 18.3483 2.37001L18.421 2.21469L18.4711 2.27982C18.4987 2.3149 18.5563 2.38505 18.5964 2.43515ZM25.0074 2.62054C25.4358 2.81846 25.6738 3.21931 25.6413 3.69031C25.6237 3.95837 25.526 4.16631 25.3306 4.36423C24.9097 4.78262 24.2608 4.79514 23.8349 4.39179C23.399 3.97842 23.3815 3.31451 23.7974 2.87609C24.0454 2.61303 24.2433 2.53286 24.6091 2.54539C24.8195 2.5504 24.8847 2.56292 25.0074 2.62054ZM12.3582 2.77838C12.6613 2.85604 12.8993 3.04895 13.0371 3.32704C13.3653 3.98844 12.977 4.74754 12.2454 4.87281C11.7794 4.95298 11.316 4.70746 11.1105 4.27404C11.0354 4.1137 11.0304 4.08865 11.0304 3.81557C11.0304 3.54249 11.0354 3.51995 11.1105 3.36462C11.2107 3.15918 11.331 3.01889 11.4938 2.91366C11.7519 2.74831 12.06 2.69821 12.3582 2.77838ZM10.1059 4.36924C10.3113 4.40682 10.5719 4.54963 10.7047 4.69744C11.2433 5.2962 10.9777 6.23569 10.2061 6.45866C9.97562 6.52631 9.67248 6.50376 9.45702 6.40104C9.23656 6.29832 9.04866 6.11043 8.93592 5.88244C8.85575 5.71459 8.85074 5.69455 8.85074 5.43149C8.85074 5.16092 8.85325 5.14839 8.94344 4.9655C9.09376 4.66236 9.35932 4.44691 9.66997 4.37926C9.8704 4.33667 9.9205 4.33417 10.1059 4.36924ZM26.4755 4.80516C27.0943 5.05068 27.3524 5.73213 27.0467 6.32839C26.919 6.58142 26.6309 6.79437 26.3302 6.86202C25.9669 6.94219 25.6112 6.83696 25.3456 6.57391C25.1953 6.42108 25.1202 6.2858 25.06 6.05782C25.0124 5.86992 25.0124 5.74465 25.06 5.55676C25.1602 5.17846 25.4408 4.88032 25.7991 4.78011C25.9745 4.73251 26.3202 4.74504 26.4755 4.80516ZM19.1976 4.83022C19.9768 5.03315 20.2699 5.93505 19.7588 6.56639C19.4707 6.92465 18.922 7.04991 18.5037 6.8545C17.8222 6.53633 17.6519 5.68954 18.1579 5.13586C18.4235 4.84525 18.8118 4.73001 19.1976 4.83022ZM16.6973 5.58181C16.993 5.66949 17.2635 5.93004 17.3838 6.24321C17.4564 6.4286 17.4615 6.75178 17.3963 6.94219C17.2435 7.39063 16.8452 7.67373 16.3691 7.67373C15.9833 7.67373 15.6827 7.51089 15.4572 7.1852C15.2793 6.92214 15.2518 6.47369 15.3946 6.16554C15.5274 5.88244 15.7403 5.69204 16.041 5.58932C16.1988 5.53421 16.527 5.5317 16.6973 5.58181ZM21.9484 5.66699C22.6399 5.99769 22.7777 6.90962 22.219 7.43322C21.5952 8.01445 20.5755 7.66121 20.4302 6.81191C20.3426 6.30083 20.6607 5.78223 21.1643 5.61438C21.267 5.5793 21.3597 5.57179 21.5401 5.5768C21.748 5.58431 21.7981 5.59433 21.9484 5.66699ZM8.11168 6.22317C8.33716 6.25824 8.51253 6.34592 8.67537 6.49875C8.92841 6.73675 9.02611 6.98728 9.00858 7.34554C8.99104 7.74388 8.77809 8.06456 8.41983 8.24244C8.25699 8.32261 8.20437 8.33513 8.01147 8.34515C7.8361 8.35518 7.75342 8.34515 7.61563 8.30256C7.08451 8.14222 6.75882 7.57853 6.8941 7.05492C6.94922 6.83446 7.01937 6.70919 7.17971 6.54134C7.37011 6.34091 7.6031 6.23319 7.92378 6.19811C7.93881 6.19811 8.02149 6.20813 8.11168 6.22317ZM26.7035 7.39815C27.2797 7.50838 27.6756 8.05704 27.5804 8.61823C27.5202 8.97649 27.3073 9.25959 26.9816 9.41993C26.7962 9.51262 26.7837 9.51513 26.5156 9.51513C26.2551 9.51513 26.2275 9.51012 26.0747 9.43746C25.7715 9.29216 25.5886 9.07921 25.4934 8.76604C25.3131 8.17479 25.6889 7.54095 26.3002 7.40817C26.478 7.36809 26.5382 7.36809 26.7035 7.39815ZM14.7357 7.52341C15.0438 7.57352 15.342 7.77144 15.4948 8.02698C15.9232 8.7435 15.4096 9.65292 14.5754 9.65292C14.0016 9.65292 13.5482 9.23203 13.5056 8.65581C13.463 8.11968 13.8563 7.61361 14.3799 7.52592C14.5628 7.49586 14.5703 7.49586 14.7357 7.52341ZM23.6045 7.78397C24.2759 8.11467 24.4187 8.9815 23.8926 9.51012C23.4616 9.93852 22.7727 9.926 22.3618 9.48005C22.1363 9.23704 22.0487 8.98651 22.0737 8.65581C22.0988 8.33764 22.2967 8.00694 22.5673 7.83658C22.7602 7.71382 22.9355 7.67123 23.1886 7.68125C23.394 7.69127 23.4416 7.70129 23.6045 7.78397ZM6.40557 8.30006C6.60098 8.33764 6.80642 8.44787 6.95924 8.60069C7.63567 9.27712 7.16217 10.4296 6.20765 10.4296C5.26065 10.4296 4.77963 9.30468 5.4285 8.61823C5.68655 8.34515 6.0398 8.22991 6.40557 8.30006ZM25.2103 9.59029C25.8793 9.76566 26.2175 10.4747 25.9269 11.0935C25.6688 11.6446 25.0024 11.8651 24.4462 11.582C24.3084 11.5119 24.118 11.3265 24.0253 11.1761C23.9752 11.091 23.9276 10.9632 23.9051 10.8479C23.7473 10.0788 24.4588 9.39487 25.2103 9.59029ZM14.1319 10.1415C14.3499 10.1865 14.5152 10.2792 14.6756 10.4396C15.3545 11.121 14.871 12.2584 13.9039 12.2584C13.3027 12.2584 12.8467 11.7975 12.8467 11.1937C12.8467 10.5999 13.3002 10.1364 13.9114 10.1064C13.939 10.1064 14.0392 10.1214 14.1319 10.1415ZM4.96001 10.5824C5.5212 10.7026 5.90701 11.2563 5.81181 11.81C5.77173 12.0355 5.68404 12.2083 5.51619 12.3837C5.28821 12.6242 5.01763 12.7244 4.66439 12.7019C4.49152 12.6918 4.41887 12.6743 4.28859 12.6092C4.07063 12.504 3.89275 12.3186 3.78503 12.0931C3.40673 11.2989 4.1057 10.402 4.96001 10.5824ZM24.4788 12.0405C24.8521 12.1858 25.1427 12.4789 25.278 12.8522C25.3431 13.0351 25.3657 13.3883 25.3231 13.5837C25.2179 14.0698 24.807 14.4856 24.3185 14.6009C23.4892 14.7963 22.67 14.1449 22.6675 13.2831C22.6675 13.1278 22.7526 12.8096 22.8353 12.6518C22.9907 12.3611 23.3389 12.0906 23.6771 11.9954C23.88 11.9378 24.2659 11.9603 24.4788 12.0405ZM14.2622 12.8497C14.658 12.9499 14.9537 13.258 15.0413 13.6564C15.2167 14.4431 14.4952 15.1295 13.711 14.9241C13.4104 14.8464 13.1599 14.636 13.0171 14.3428C12.9394 14.185 12.9344 14.16 12.9344 13.8994C12.9344 13.6414 12.9394 13.6138 13.0146 13.4535C13.245 12.9674 13.7611 12.7169 14.2622 12.8497ZM4.03305 13.1127C4.22596 13.1553 4.44643 13.2731 4.5767 13.4084C5.10532 13.952 4.94498 14.8214 4.25602 15.1495C4.10069 15.2222 4.07314 15.2272 3.81258 15.2272C3.54452 15.2272 3.53199 15.2247 3.3491 15.1345C3.11611 15.0193 2.95327 14.8539 2.84303 14.6184C2.76787 14.4606 2.76286 14.4355 2.76286 14.1625C2.76286 13.8894 2.76787 13.8668 2.84303 13.709C3.0635 13.258 3.55704 13.0125 4.03305 13.1127ZM23.1811 14.8239C23.3715 14.9316 23.5318 14.9867 23.7748 15.0218L23.9677 15.0493L23.9752 15.1746C23.9802 15.2447 23.9752 15.4477 23.9652 15.6281C23.9051 16.8406 23.4867 18.7171 22.8378 20.6988C22.7401 20.9969 22.66 21.2424 22.6549 21.2474C22.6474 21.2575 20.102 20.3505 20.0795 20.328C20.0519 20.3004 20.4453 19.2733 20.796 18.459C21.4549 16.9283 22.1789 15.613 22.7602 14.8815C22.9205 14.6811 22.933 14.6685 22.9806 14.7036C23.0082 14.7211 23.0984 14.7763 23.1811 14.8239ZM14.5553 15.5178C15.0038 15.613 15.3395 15.9688 15.4096 16.4222C15.4597 16.7404 15.3595 17.0461 15.129 17.2991C14.8058 17.6523 14.2923 17.745 13.8664 17.5296C13.4981 17.3442 13.2726 16.9809 13.2726 16.565C13.2726 15.8936 13.9039 15.38 14.5553 15.5178ZM3.70736 15.7934C3.98294 15.8535 4.27606 16.0665 4.42388 16.317C4.69445 16.778 4.53161 17.4494 4.07815 17.7425C3.41925 18.1684 2.55492 17.7876 2.42214 17.011C2.29938 16.287 2.98082 15.6406 3.70736 15.7934ZM14.9787 18.2912C15.4071 18.4966 15.6601 18.9751 15.5825 19.4261C15.5023 19.8946 15.1541 20.2428 14.6806 20.3305C14.1845 20.4232 13.6509 20.0875 13.4855 19.5764C13.4154 19.3635 13.4405 19.0328 13.5407 18.8198C13.6709 18.5392 13.8789 18.3488 14.1645 18.2461C14.2847 18.2035 14.3574 18.196 14.5628 18.2035C14.7833 18.211 14.8334 18.221 14.9787 18.2912ZM4.15832 18.4966C4.7646 18.682 5.07776 19.3885 4.80969 19.9622C4.48651 20.6512 3.60715 20.809 3.07352 20.2779C2.81297 20.0148 2.70524 19.6516 2.78541 19.2933C2.8731 18.9 3.19628 18.5618 3.56957 18.4741C3.73743 18.434 3.98796 18.444 4.15832 18.4966ZM14.3123 20.8717C14.7207 21.057 14.9762 21.4454 14.9762 21.8838C14.9737 22.2345 14.7933 22.5803 14.5152 22.7657C14.3323 22.8859 14.2021 22.931 13.9791 22.9485C13.4279 22.9936 12.9444 22.6028 12.8442 22.0316C12.754 21.523 13.1298 20.9543 13.6384 20.8291C13.8087 20.7865 14.1695 20.809 14.3123 20.8717ZM5.193 20.8792C5.40345 20.9167 5.58634 21.0069 5.72914 21.1397C5.99219 21.3852 6.09491 21.6433 6.07737 22.0015C6.05984 22.3999 5.84689 22.7206 5.48612 22.8984C5.32077 22.9811 5.27317 22.9936 5.06774 23.0012C4.70698 23.0187 4.45144 22.911 4.21594 22.6504C3.74494 22.1268 3.91029 21.2675 4.54163 20.9719C4.78715 20.8591 4.9525 20.8341 5.193 20.8792ZM7.35508 22.668C7.53045 22.7206 7.77847 22.8934 7.89121 23.0437C8.29958 23.5849 8.10667 24.3841 7.49788 24.6722C7.19975 24.8125 6.88158 24.81 6.57342 24.6647C5.82434 24.3089 5.74417 23.2742 6.42812 22.8133C6.5158 22.7531 6.64107 22.6905 6.7037 22.6705C6.86153 22.6229 7.19474 22.6204 7.35508 22.668ZM12.5711 22.9034C12.9845 23.0713 13.2475 23.4621 13.2475 23.9106C13.2475 24.8776 12.0575 25.3461 11.3911 24.6421C10.8475 24.0659 11.088 23.1515 11.8571 22.8734C12.0275 22.8133 12.3782 22.8283 12.5711 22.9034ZM9.89044 23.4872C10.3239 23.615 10.637 24.0033 10.6621 24.4392C10.6896 24.8977 10.4642 25.2885 10.0508 25.4939C9.29167 25.8747 8.38977 25.1983 8.53257 24.359C8.6428 23.7177 9.27915 23.3068 9.89044 23.4872Z" fill="white" stroke="white" stroke-width="0.2"/>
</g>
<defs>
<clipPath id="clip0_4_793">
<rect width="28" height="28" fill="white"/>
</clipPath>
</defs>
</svg>
