<svg width="20" height="20" viewBox="0 0 20 20" fill="none" xmlns="http://www.w3.org/2000/svg">
<path d="M9.83708 1.03554C9.75425 1.07461 9.69643 1.13712 9.56984 1.33404C6.89901 5.48173 4.96425 9.15745 4.29693 11.3594C4.07814 12.083 4 12.53 4 13.0598C4 13.7693 4.1219 14.4475 4.36882 15.1024C5.10178 17.0559 6.79899 18.503 8.81969 18.9C9.2776 18.9891 9.41356 19 10.0012 19C10.5888 19 10.7248 18.9891 11.1827 18.9C12.6017 18.6202 13.9066 17.8029 14.7896 16.637C15.4257 15.7978 15.8148 14.8445 15.9633 13.7662C16.0039 13.4724 16.0133 12.8332 15.9789 12.5706C15.7742 10.9547 14.5599 8.22132 12.4188 4.56123C11.6921 3.3188 10.4153 1.26527 10.2762 1.11681C10.2059 1.04023 10.1215 1.00585 10.0012 1.00585C9.93554 1.00585 9.87771 1.01679 9.83708 1.03554ZM10.2418 2.4702C12.4704 6.01308 14.0598 9.00273 14.7881 11.0156C14.9787 11.5439 15.1147 12.0268 15.1928 12.455C15.2256 12.6347 15.2288 12.7019 15.2288 13.0863C15.2272 13.5489 15.2069 13.7458 15.1178 14.149C14.8427 15.3837 14.1114 16.4917 13.0643 17.2559C12.3454 17.7826 11.4702 18.1201 10.5638 18.2202C10.2965 18.2499 9.75581 18.253 9.50733 18.228C8.479 18.1217 7.54132 17.7419 6.74272 17.109C6.53487 16.9449 6.16761 16.587 5.99727 16.3839C5.40653 15.6806 5.01895 14.8648 4.84548 13.9615C4.75015 13.463 4.73921 12.8222 4.81891 12.4065C4.93143 11.8173 5.12209 11.2141 5.4456 10.4155C5.72221 9.73412 5.94569 9.24496 6.39266 8.35104C6.9959 7.14455 7.6554 5.949 8.51026 4.51122C9.00879 3.672 9.98086 2.10138 10.0012 2.09981C10.0059 2.09981 10.1137 2.26703 10.2418 2.4702Z" fill="#8B8B8B"/>
<path d="M13.4011 12.6629C13.323 12.6988 13.2464 12.7785 13.2136 12.8567C13.198 12.8957 13.1839 13.002 13.1745 13.1614C13.1526 13.538 13.0917 13.824 12.9714 14.1366C12.565 15.1899 11.6508 15.9432 10.5381 16.1417C10.4631 16.1542 10.2896 16.1729 10.1536 16.1808C9.88482 16.1979 9.8223 16.2151 9.73791 16.2948C9.6629 16.3667 9.62695 16.4527 9.62695 16.5683C9.62695 16.6824 9.65665 16.7621 9.72541 16.8356C9.81293 16.9262 9.87544 16.9465 10.0927 16.9465C10.8725 16.9481 11.6867 16.6699 12.354 16.1729C13.1183 15.6056 13.6481 14.7899 13.8528 13.8678C13.9419 13.4646 13.97 12.9723 13.9106 12.8442C13.8747 12.7676 13.795 12.6894 13.7184 12.6582C13.6371 12.6238 13.4793 12.6269 13.4011 12.6629Z" fill="#8B8B8B"/>
</svg>
