<svg width="20" height="20" viewBox="0 0 20 20" fill="none" xmlns="http://www.w3.org/2000/svg">
<g clip-path="url(#clip0_4_625)">
<path d="M11.4913 2.61495C11.4079 2.65162 11.3396 2.72995 11.3163 2.81329C11.2929 2.89829 11.2929 4.33662 11.3179 4.42162C11.3429 4.51329 11.4429 4.60662 11.5413 4.63162C11.7146 4.67495 11.8896 4.57662 11.9296 4.41162C11.9563 4.31162 11.9579 2.90329 11.9329 2.81329C11.8963 2.68329 11.7613 2.58329 11.6246 2.58329C11.5879 2.58329 11.5279 2.59828 11.4913 2.61495Z" fill="#8B8B8B" stroke="#8B8B8B" stroke-width="0.3"/>
<path d="M5.85527 4.94846C5.76027 4.9918 5.69527 5.0818 5.68527 5.18346C5.66861 5.36513 5.65027 5.34013 6.25361 5.9468C6.55861 6.2518 6.83027 6.51513 6.85694 6.52846C6.92694 6.5668 7.08027 6.56346 7.14861 6.52346C7.24361 6.46846 7.30361 6.37846 7.31194 6.2768C7.32527 6.10846 7.32194 6.10346 6.76027 5.5368C6.47527 5.25013 6.21194 4.9968 6.17694 4.9718C6.09194 4.9118 5.95361 4.9018 5.85527 4.94846Z" fill="#8B8B8B" stroke="#8B8B8B" stroke-width="0.3"/>
<path d="M17.1166 4.94347C17.0466 4.97347 16.0516 5.9568 15.9816 6.06514C15.9283 6.1468 15.9166 6.27014 15.9516 6.3618C15.9733 6.42014 16.0433 6.49514 16.1083 6.53014C16.1733 6.56347 16.3266 6.56347 16.3916 6.52847C16.4633 6.49014 17.5283 5.4168 17.5483 5.3618C17.5916 5.2468 17.5549 5.0718 17.4716 4.9968C17.3866 4.92014 17.2266 4.89514 17.1166 4.94347Z" fill="#8B8B8B" stroke="#8B8B8B" stroke-width="0.3"/>
<path d="M11.22 5.93505C10.8266 5.97006 10.465 6.04172 10.1 6.16005C9.84329 6.24172 9.77496 6.28172 9.72162 6.37505C9.65329 6.49505 9.67996 6.68172 9.77829 6.77005C9.86829 6.85172 10.0266 6.87172 10.1633 6.81839C10.5616 6.66172 11.115 6.56672 11.6333 6.56672C13.275 6.56672 14.7583 7.49506 15.4833 8.97506C15.935 9.89672 16.0433 10.8984 15.7983 11.9001C15.6866 12.3534 15.4783 12.8284 15.2116 13.2284C15.0183 13.5217 15.0016 13.5967 15.0883 13.7551C15.165 13.8934 15.3766 13.9451 15.525 13.8617C15.6533 13.7901 16.01 13.2017 16.1933 12.7584C16.3616 12.3501 16.4683 11.9451 16.5366 11.4501C16.57 11.2067 16.565 10.4601 16.5283 10.2101C16.4383 9.61339 16.2833 9.11339 16.0333 8.62506C15.2833 7.15672 13.8733 6.16339 12.2483 5.95839C11.995 5.92672 11.4516 5.91339 11.22 5.93505Z" fill="#8B8B8B" stroke="#8B8B8B" stroke-width="0.3"/>
<path d="M8.91217 6.72995C8.82384 6.77661 8.49384 7.02828 8.31384 7.18661C7.77884 7.66328 7.32884 8.30161 7.05551 8.96661C6.97884 9.15828 6.97051 9.20161 7.00051 9.30828C7.04051 9.45328 7.22884 9.55828 7.37551 9.51828C7.49717 9.48495 7.54717 9.43995 7.60051 9.31995C7.99217 8.44661 8.40551 7.90661 9.07217 7.40328C9.19051 7.31495 9.30217 7.22161 9.3205 7.19828C9.39384 7.09828 9.38217 6.89828 9.29717 6.80495C9.2055 6.70661 9.02884 6.67161 8.91217 6.72995Z" fill="#8B8B8B" stroke="#8B8B8B" stroke-width="0.3"/>
<path d="M3.94628 9.40835C3.16461 9.50668 2.45461 9.79501 1.81961 10.27C1.61961 10.42 1.23628 10.7917 1.07628 10.9917C0.431276 11.795 0.0996094 12.73 0.0996094 13.7433C0.0996094 14.3633 0.211276 14.9133 0.451276 15.4833C0.714609 16.1067 1.19461 16.7417 1.71628 17.155C2.02461 17.4 2.11128 17.42 2.81794 17.4133C3.34294 17.4083 3.34461 17.4083 3.40294 17.3683C3.58794 17.2417 3.59794 16.9733 3.42294 16.84L3.36128 16.7917L2.83461 16.7833C2.37461 16.775 2.30128 16.7717 2.25461 16.745C2.16461 16.6967 1.90961 16.475 1.75794 16.3117C0.371276 14.8333 0.406276 12.5467 1.83461 11.1183C2.97961 9.97335 4.71461 9.69501 6.15461 10.425C6.74628 10.7233 7.23794 11.17 7.62294 11.7567C7.76461 11.9717 7.81294 12.0083 7.96628 12.0083C8.04794 12.0083 8.07794 11.9967 8.22461 11.9133C8.69294 11.6467 9.17294 11.5633 9.68128 11.6583C10.4879 11.8117 11.1579 12.4733 11.3229 13.2833C11.3363 13.3517 11.3563 13.4867 11.3646 13.58C11.3829 13.7717 11.4096 13.83 11.5113 13.9C11.6029 13.9633 11.7146 13.9633 11.8929 13.9017C12.1113 13.8267 12.2663 13.7983 12.4996 13.7883C13.4679 13.7483 14.3396 14.3933 14.5913 15.3367C14.6929 15.7133 14.6829 16.1083 14.5646 16.4917C14.5263 16.6183 14.4679 16.6933 14.3746 16.735C14.3113 16.765 14.1463 16.7667 10.1746 16.7683C7.90128 16.77 5.65794 16.775 5.18961 16.7817L4.33794 16.7917L4.27628 16.84C4.07128 16.995 4.13294 17.3283 4.37961 17.4C4.42461 17.4133 5.84461 17.4167 9.42461 17.4133C14.0929 17.4067 14.4146 17.405 14.5063 17.3783C14.7279 17.3133 14.9313 17.1633 15.0529 16.9767C15.1263 16.8617 15.2163 16.5967 15.2596 16.3583C15.3063 16.1083 15.3029 15.555 15.2529 15.3267C14.9979 14.17 14.1029 13.33 12.9496 13.1667C12.7613 13.14 12.3463 13.145 12.1496 13.175C12.0563 13.19 11.9779 13.2 11.9729 13.1967C11.9696 13.1933 11.9479 13.115 11.9246 13.025C11.6479 11.9633 10.7713 11.1717 9.69128 11.0083C9.48128 10.9767 9.10794 10.9767 8.89128 11.0083C8.63128 11.045 8.33294 11.1333 8.14794 11.2267L8.07128 11.265L7.99961 11.1633C7.79294 10.87 7.43794 10.51 7.11628 10.2683C6.52128 9.82001 5.91294 9.56001 5.15794 9.43168C4.89794 9.38668 4.21628 9.37335 3.94628 9.40835Z" fill="#8B8B8B" stroke="#8B8B8B" stroke-width="0.3"/>
<path d="M18.0246 10.5733C17.9629 10.6017 17.8913 10.6767 17.8679 10.7383C17.8246 10.8533 17.8613 11.0283 17.9446 11.1033C18.0313 11.1817 18.0529 11.1833 18.8779 11.1833C19.6363 11.1833 19.6579 11.1817 19.7296 11.1483C19.9346 11.0483 19.9596 10.7483 19.7713 10.605L19.7113 10.5583L18.8929 10.555C18.2346 10.5517 18.0646 10.555 18.0246 10.5733Z" fill="#8B8B8B" stroke="#8B8B8B" stroke-width="0.3"/>
<path d="M16.1347 15.1851C16.0613 15.2134 15.9997 15.2701 15.9663 15.3334C15.9263 15.4101 15.923 15.5434 15.9563 15.6218C15.9697 15.6518 16.2263 15.9201 16.5347 16.2284C17.028 16.7184 17.0997 16.7834 17.1647 16.8001C17.2513 16.8234 17.3347 16.8101 17.4213 16.7618C17.568 16.6801 17.6147 16.4651 17.518 16.3151C17.4913 16.2751 17.2347 16.0084 16.948 15.7234C16.513 15.2901 16.413 15.2001 16.358 15.1851C16.278 15.1634 16.1897 15.1634 16.1347 15.1851Z" fill="#8B8B8B" stroke="#8B8B8B" stroke-width="0.3"/>
</g>
<defs>
<clipPath id="clip0_4_625">
<rect width="20" height="20" fill="white"/>
</clipPath>
</defs>
</svg>
