<svg width="28" height="28" viewBox="0 0 28 28" fill="none" xmlns="http://www.w3.org/2000/svg">
<g clip-path="url(#clip0_4_806)">
<path d="M21.8702 0.611305C21.8204 0.634908 21.7443 0.700473 21.6997 0.755548L21.6184 0.85783L21.6106 1.32728C21.6027 1.76788 21.6053 1.80721 21.6604 1.91736C21.7443 2.09308 21.886 2.177 22.0905 2.177C22.2898 2.177 22.4419 2.08783 22.5232 1.92523C22.5757 1.82557 22.5783 1.78361 22.5705 1.33777L22.5626 0.85783L22.4813 0.755548C22.3764 0.624418 22.2531 0.564098 22.0905 0.564098C22.0171 0.564098 21.92 0.585079 21.8702 0.611305Z" fill="white" stroke="white" stroke-width="0.1"/>
<path d="M17.8113 3.02916C17.5123 3.09997 17.3444 3.48287 17.4965 3.75038C17.5569 3.85791 17.8113 4.03624 18.1758 4.22245C18.4538 4.36669 18.6767 4.34571 18.8341 4.15951C18.9783 3.98641 18.9967 3.70842 18.8708 3.54582C18.7606 3.40157 18.0184 2.98458 17.9083 3.00556C17.9004 3.00818 17.8558 3.01867 17.8113 3.02916Z" fill="white" stroke="white" stroke-width="0.1"/>
<path d="M26.1437 3.03472C26.0519 3.06094 25.4618 3.39401 25.3701 3.47269C25.2389 3.58284 25.1891 3.83986 25.2625 4.02082C25.3832 4.30406 25.669 4.39585 25.968 4.24636C26.2303 4.11523 26.6132 3.86346 26.6709 3.78478C26.8466 3.53563 26.6892 3.11602 26.385 3.03209C26.2696 2.998 26.2617 3.00062 26.1437 3.03472Z" fill="white" stroke="white" stroke-width="0.1"/>
<path d="M21.7518 3.6693C20.8103 3.82141 20.1467 4.42199 19.9002 5.3399C19.8215 5.62839 19.8137 6.26831 19.8845 6.55155C20.0733 7.30686 20.5847 7.89695 21.264 8.14347C21.6993 8.30345 22.1163 8.33754 22.5517 8.24838C23.425 8.07004 24.0466 7.48257 24.2878 6.60924C24.3718 6.29715 24.3718 5.65462 24.2878 5.3399C24.099 4.65016 23.6768 4.13612 23.0631 3.85288C22.6776 3.67455 22.1583 3.60111 21.7518 3.6693ZM22.4337 4.66851C23.105 4.84423 23.5089 5.55233 23.3542 6.28404C23.2545 6.74824 22.9267 7.11803 22.4914 7.25703C22.2606 7.33046 21.9118 7.33046 21.6888 7.25441C21.2351 7.09967 20.9388 6.75611 20.8339 6.26568C20.784 6.03752 20.7867 5.8959 20.8339 5.66511C20.9388 5.17206 21.2823 4.7944 21.7413 4.67114C21.9301 4.62131 22.2422 4.61868 22.4337 4.66851Z" fill="white" stroke="white" stroke-width="0.1"/>
<path d="M18.2611 7.66882C18.2034 7.69767 18.0199 7.79995 17.8546 7.89961C17.6029 8.05172 17.5452 8.09893 17.4953 8.19597C17.2882 8.58674 17.6737 9.04569 18.0802 8.89096C18.2166 8.83851 18.7306 8.53166 18.8198 8.45036C18.9273 8.3507 18.964 8.25366 18.9509 8.08844C18.9247 7.7239 18.5837 7.51671 18.2611 7.66882Z" fill="white" stroke="white" stroke-width="0.1"/>
<path d="M25.4536 7.6948C25.194 7.86002 25.1415 8.25603 25.3566 8.44749C25.4431 8.52616 25.868 8.7858 26.0411 8.86448C26.2115 8.94316 26.3243 8.94578 26.4712 8.87759C26.7046 8.7622 26.8069 8.46322 26.6967 8.2167C26.6521 8.11441 26.6102 8.0777 26.4004 7.94394C25.8234 7.58727 25.6818 7.55055 25.4536 7.6948Z" fill="white" stroke="white" stroke-width="0.1"/>
<path d="M0.257139 8.14082C0.20731 8.16704 0.131254 8.23261 0.0892921 8.28506C0.0211043 8.36636 0.00799126 8.40833 0.000123429 8.55781C-0.00512179 8.65485 0.15748 11.3876 0.359421 14.6344C0.561362 17.8786 0.792151 21.5922 0.87083 22.8825C0.967866 24.4534 1.03081 25.3032 1.05966 25.4527C1.19341 26.1136 1.69957 26.6774 2.36834 26.9135L2.57815 26.9869L4.46643 26.9948L6.3547 27L6.45961 26.9397C6.60385 26.8584 6.68253 26.7115 6.68253 26.5201C6.68253 26.4361 6.6668 26.3365 6.64581 26.2971C6.59598 26.2027 6.47534 26.0926 6.38618 26.0585C6.33635 26.0401 5.74626 26.0296 4.60018 26.0296C2.71715 26.0296 2.70403 26.0296 2.45226 25.867C2.20574 25.7097 2.05363 25.4684 2.01166 25.1694C1.99593 25.0724 1.83857 22.6045 1.66023 19.6829C1.47927 16.7613 1.32716 14.3039 1.3193 14.2174L1.30356 14.0653L1.37699 14.0758C1.41633 14.0837 1.55795 14.1151 1.69171 14.1466C2.08247 14.2358 2.42079 14.2803 2.84041 14.2987C3.65079 14.3302 4.31169 14.2174 5.86952 13.7821C7.18607 13.4123 8.0017 13.3572 9.04288 13.5618C9.35759 13.6221 9.74836 13.7165 9.7641 13.7348C9.76672 13.7401 9.68542 15.1091 9.58051 16.7771C9.4625 18.6339 9.39693 19.8455 9.41004 19.9032C9.45725 20.1183 9.6487 20.2599 9.89523 20.2599C10.1365 20.2599 10.3358 20.0894 10.3673 19.8586C10.3752 19.7983 10.5378 17.2255 10.7318 14.1387C10.981 10.1445 11.0754 8.50536 11.057 8.4398C11.0256 8.32702 10.8892 8.17229 10.7817 8.1277C10.7109 8.09623 10.1706 8.09099 7.78403 8.09099C4.93587 8.09099 4.86769 8.09099 4.77065 8.14344C4.42971 8.31653 4.42184 8.81221 4.75491 9.00103L4.85982 9.06135H7.46669H10.0709L10.0552 9.23707C10.0447 9.33673 9.99751 10.0868 9.94768 10.9103C9.89785 11.7312 9.85064 12.4786 9.84015 12.5652L9.82704 12.7278L9.63821 12.6779C9.04026 12.5258 8.37936 12.4603 7.67912 12.4786C6.8766 12.4996 6.50944 12.5678 5.27944 12.9166C4.03107 13.2706 3.70849 13.3231 2.94531 13.3021C2.40768 13.289 2.12181 13.2444 1.57369 13.0949C1.33765 13.032 1.27209 13.0031 1.25373 12.9586C1.23799 12.9166 1.11211 10.9654 1.00983 9.17937L1.00458 9.07447L1.66548 9.06135L2.32375 9.04824L2.42604 8.96694C2.48111 8.92236 2.54668 8.8463 2.57028 8.79647C2.62798 8.68894 2.63322 8.45815 2.58077 8.3585C2.53094 8.26408 2.4103 8.15393 2.32113 8.11984C2.27393 8.10148 1.90414 8.09099 1.29831 8.09099C0.422363 8.09099 0.341063 8.09361 0.257139 8.14082Z" fill="white" stroke="white" stroke-width="0.1"/>
<path d="M21.8229 9.83518C21.6341 9.94795 21.6053 10.0502 21.6053 10.5643C21.6053 11.0599 21.621 11.1255 21.7705 11.2566C21.8544 11.3301 22.0065 11.3956 22.0905 11.3956C22.1744 11.3956 22.3265 11.3301 22.4104 11.2566C22.5599 11.1255 22.5756 11.0599 22.5756 10.5643C22.5756 10.1735 22.5704 10.1158 22.5206 10.0135C22.4078 9.77748 22.0642 9.69093 21.8229 9.83518Z" fill="white" stroke="white" stroke-width="0.1"/>
<path d="M23.2844 15.9482C23.0641 15.9771 22.6602 16.0689 22.4373 16.1423C22.1016 16.2524 21.6138 16.5016 21.3174 16.7114C20.9975 16.9422 20.5385 17.3985 20.313 17.7159C20.1005 18.0148 19.8252 18.5577 19.7203 18.8855C19.5577 19.3865 19.5209 19.6435 19.5236 20.2336C19.5236 20.7135 19.5314 20.8079 19.5944 21.1069C19.6888 21.5527 19.7989 21.8911 19.9668 22.2425C20.5306 23.4331 21.5508 24.2199 22.9172 24.511C23.2896 24.5923 24.163 24.6002 24.5301 24.5268C25.3405 24.3642 25.9831 24.0573 26.5679 23.5564C27.4911 22.7618 28.047 21.398 27.9972 20.0552C27.9395 18.4633 26.9744 17.0025 25.5346 16.3285C24.9471 16.0531 24.5354 15.9587 23.8614 15.9456C23.5939 15.9404 23.3342 15.943 23.2844 15.9482ZM24.2495 16.971C25.8913 17.2149 27.0164 18.5656 27.019 20.2991C27.019 20.543 27.0032 20.7424 26.9744 20.8945C26.7174 22.19 25.8021 23.184 24.5485 23.5302C24.3124 23.5957 24.2548 23.601 23.7696 23.601C23.2975 23.6036 23.2214 23.5984 23.0116 23.5407C21.6164 23.1735 20.6592 22.051 20.5018 20.6034C20.4389 20.0238 20.5726 19.2973 20.8454 18.7229C21.4459 17.4667 22.8228 16.7586 24.2495 16.971Z" fill="white" stroke="white" stroke-width="0.1"/>
<path d="M22.5655 18.6208C22.5524 18.626 22.5078 18.6365 22.4684 18.6444C22.2272 18.6968 22.0646 19.0509 22.1695 19.2974C22.1878 19.3446 22.4003 19.5859 22.6389 19.8298L23.0743 20.2756L22.6547 20.6952C22.4134 20.9365 22.2141 21.1568 22.1852 21.2198C22.0357 21.524 22.235 21.878 22.5655 21.9069C22.6442 21.9121 22.7412 21.9095 22.7805 21.899C22.8277 21.8885 23.0218 21.7154 23.3077 21.4322L23.7588 20.9837L24.2125 21.4322C24.4957 21.7154 24.6898 21.8885 24.737 21.899C24.8812 21.9357 25.0858 21.899 25.1881 21.8203C25.3927 21.6682 25.4399 21.364 25.2982 21.1594C25.2589 21.1044 25.0517 20.8841 24.8367 20.669L24.4433 20.2756L24.8655 19.8455C25.293 19.4075 25.3822 19.279 25.3848 19.1112C25.3848 18.9381 25.2694 18.7493 25.1094 18.668C25.0019 18.6103 24.7895 18.6129 24.6767 18.6732C24.6269 18.6994 24.3987 18.9093 24.1731 19.1427L23.7588 19.5649L23.3444 19.1427C23.1162 18.9093 22.8959 18.7021 22.8513 18.6785C22.77 18.6365 22.6101 18.6024 22.5655 18.6208Z" fill="white" stroke="white" stroke-width="0.1"/>
<path d="M16.0576 18.0491C15.6511 18.1068 15.1921 18.3114 14.8617 18.5841L14.7043 18.7153L14.5679 18.6707C14.3739 18.6051 14.0146 18.6104 13.7759 18.6864C13.3563 18.8202 12.9734 19.0798 12.7242 19.4024C12.6561 19.4916 12.5931 19.5729 12.5826 19.5834C12.5748 19.5965 12.4961 19.6174 12.4122 19.6306C11.8745 19.7276 11.3159 20.0449 11.0117 20.4252C10.9015 20.5642 10.891 20.5695 10.7415 20.5852C10.2039 20.6481 9.60858 20.9392 9.12078 21.3798C9.0421 21.4507 8.90572 21.5477 8.81918 21.5949C8.41529 21.8178 8.08485 22.1404 7.90913 22.4813L7.82258 22.6466H7.33478C6.71584 22.6466 6.58471 22.6859 6.46932 22.9141C6.41687 23.0164 6.41687 23.0504 6.42736 23.8635C6.44047 24.7945 6.45096 24.8705 6.63979 25.3164C6.82862 25.7648 7.23512 26.2658 7.62327 26.528C7.84619 26.6775 8.2186 26.8506 8.47824 26.9267L8.68805 26.987L16.3067 26.9922C23.1334 27.0001 23.949 26.9975 24.1457 26.9608C24.9692 26.806 25.6721 26.2815 26.055 25.5367C26.1861 25.2849 26.194 25.1984 26.1022 25.0174C26.0156 24.8469 25.8924 24.763 25.7009 24.7499C25.4649 24.7342 25.3573 24.8076 25.179 25.0987C24.9167 25.5288 24.5942 25.7963 24.1614 25.9458L23.9516 26.0166H16.3985H8.8454L8.61986 25.9353C8.06911 25.7386 7.65998 25.3164 7.4764 24.7578C7.4187 24.5742 7.40821 24.4903 7.3951 24.0942L7.38199 23.6432H13.372C17.6731 23.6432 19.3909 23.6353 19.467 23.6143C19.6138 23.5723 19.7082 23.4989 19.7712 23.373C19.8866 23.1475 19.821 22.8852 19.6138 22.7384L19.5011 22.6597L14.2532 22.6466L9.00276 22.6334L9.13389 22.5548C9.20732 22.5102 9.33321 22.4394 9.41713 22.3974C9.50105 22.3528 9.65841 22.2348 9.76332 22.1299C10.1488 21.7523 10.4976 21.5923 11.0484 21.5451C11.4129 21.5136 11.4864 21.4716 11.6516 21.2041C11.8535 20.8815 12.2417 20.6455 12.6482 20.5983C13.0206 20.5537 13.0363 20.5511 13.1255 20.496C13.1727 20.4672 13.2724 20.3492 13.351 20.2285C13.6028 19.8404 13.9175 19.6043 14.185 19.6043C14.269 19.6043 14.3555 19.6279 14.4604 19.683C14.7987 19.8561 14.9797 19.8377 15.2079 19.6043C15.554 19.2503 15.8504 19.0772 16.2044 19.0247C16.6686 18.9566 17.1066 19.1244 17.5105 19.523C17.8331 19.843 17.9668 19.8745 18.3052 19.7066C18.3917 19.662 18.5359 19.6201 18.6435 19.6043C18.8611 19.5729 18.8952 19.5571 19.0028 19.4365C19.2021 19.2083 19.1287 18.8018 18.869 18.6759C18.7484 18.6209 18.4442 18.6209 18.2422 18.6759L18.0927 18.7179L17.9563 18.5973C17.5577 18.238 16.9702 18.0281 16.3985 18.036C16.2543 18.036 16.1022 18.0439 16.0576 18.0491Z" fill="white" stroke="white" stroke-width="0.1"/>
</g>
<defs>
<clipPath id="clip0_4_806">
<rect width="28" height="28" fill="white"/>
</clipPath>
</defs>
</svg>
