<svg width="20" height="20" viewBox="0 0 20 20" fill="none" xmlns="http://www.w3.org/2000/svg">
<path d="M10.0398 2.00943C8.49577 2.10159 7.03486 2.58503 5.78698 3.41897C4.12061 4.53089 2.91351 6.16855 2.35 8.07664C1.8016 9.93185 1.89979 11.914 2.62949 13.7254C2.73675 13.9913 3.00718 14.5397 3.15826 14.798C4.25658 16.6668 6.01057 18.0401 8.07729 18.6504C10.1425 19.2608 12.3784 19.0659 14.2925 18.1126C15.6356 17.4433 16.749 16.4613 17.5815 15.2135C19.2599 12.7011 19.4639 9.41819 18.1133 6.70789C17.5784 5.63525 16.8563 4.72275 15.9317 3.95227C15.4181 3.52472 14.8893 3.18178 14.2699 2.87812C13.2773 2.39014 12.2923 2.1182 11.1683 2.02454C10.8979 2.00188 10.3026 1.99432 10.0398 2.00943ZM11.052 2.59863C13.2713 2.76028 15.2776 3.80874 16.6735 5.53705C17.5603 6.63537 18.142 7.97693 18.3399 9.38193C18.3988 9.80343 18.4094 9.96962 18.4094 10.4999C18.4094 11.0302 18.3988 11.1964 18.3399 11.6179C18.0347 13.7813 16.8336 15.7392 15.0404 16.9901C13.8997 17.7863 12.6322 18.2486 11.2106 18.3891C10.9402 18.4148 10.0428 18.4148 9.79049 18.3891C8.71634 18.2773 7.83859 18.025 6.9276 17.5672C4.90469 16.5535 3.40602 14.6922 2.83344 12.4865C2.65971 11.8127 2.59172 11.2613 2.59172 10.5074C2.59172 9.76869 2.64762 9.27618 2.80474 8.62806C3.24135 6.8363 4.28075 5.2636 5.76431 4.15169C6.97443 3.24372 8.49123 2.68625 10.002 2.59409C10.2029 2.58201 10.8586 2.58503 11.052 2.59863Z" fill="#8B8B8B" stroke="#8B8B8B" stroke-width="0.3"/>
<path d="M7.30378 7.1597C7.15875 7.22617 7.09379 7.38933 7.15271 7.53588C7.16932 7.57516 7.60442 8.01932 8.63023 9.04513L10.0836 10.5L8.63023 11.9533C7.60442 12.9807 7.16932 13.4248 7.15271 13.4641C7.05602 13.7013 7.29774 13.943 7.53493 13.8463C7.57421 13.8297 8.01837 13.3946 9.04569 12.3688L10.499 10.9154L11.9539 12.3688C12.9797 13.3946 13.4239 13.8297 13.4631 13.8463C13.7003 13.943 13.9421 13.7013 13.8454 13.4641C13.8287 13.4248 13.3937 12.9807 12.3678 11.9533L10.9145 10.5L12.3678 9.04513C13.3937 8.01932 13.8287 7.57516 13.8454 7.53588C13.9421 7.29869 13.7003 7.05697 13.4631 7.15366C13.4239 7.17027 12.9797 7.60537 11.9539 8.63118L10.499 10.0845L9.04569 8.63118C8.01837 7.60537 7.57421 7.17027 7.53493 7.15366C7.4609 7.12344 7.37781 7.12495 7.30378 7.1597Z" fill="#8B8B8B" stroke="#8B8B8B" stroke-width="0.3"/>
</svg>
