<svg width="20" height="20" viewBox="0 0 20 20" fill="none" xmlns="http://www.w3.org/2000/svg">
<path d="M16.3216 2.01377C15.8196 2.08482 15.4043 2.38323 15.1817 2.83006C15.1454 2.90268 15.098 3.03057 15.0743 3.11583L15.0333 3.26899L15.027 4.32526L15.0222 5.37996L14.7901 5.1526C14.2628 4.63788 13.7386 4.25737 13.1054 3.93212C11.1824 2.94689 8.88193 2.93584 6.94937 3.9037C6.00993 4.37421 5.19207 5.04997 4.56841 5.87573C3.76791 6.93516 3.30056 8.17301 3.19794 9.5119C3.19004 9.62874 3.18057 9.72505 3.17899 9.72663C3.17583 9.72821 3.10162 9.75189 3.01163 9.78031C2.47323 9.95399 2.0785 10.4419 2.01377 11.0182C2.00114 11.1161 1.99798 12.065 2.00114 13.9502L2.00588 16.7369L2.04851 16.89C2.19534 17.4253 2.58217 17.8105 3.11741 17.9574L3.26899 18H10.0029H16.7369L16.8885 17.9589C17.4205 17.8105 17.8105 17.4205 17.9589 16.8885L18 16.7369V10.0029V3.26899L17.9574 3.11741C17.8658 2.78111 17.6747 2.49691 17.4111 2.29955C17.1158 2.07693 16.6801 1.96325 16.3216 2.01377ZM16.7006 2.63111C16.9358 2.68006 17.1916 2.87584 17.2942 3.08741C17.3495 3.20109 17.3921 3.35109 17.3921 3.43003V3.48213H16.5158H15.6396V3.43477C15.6396 3.09531 15.9506 2.72269 16.3074 2.63585C16.4116 2.61059 16.5916 2.60901 16.7006 2.63111ZM10.7861 3.8437C12.627 4.09316 14.2123 5.09418 15.218 6.64149C15.7122 7.40093 16.0564 8.34353 16.1527 9.20086C16.1653 9.3256 16.1843 9.4819 16.1922 9.55138C16.2001 9.61927 16.2032 9.68085 16.1985 9.68874C16.1938 9.69663 13.5096 9.70295 9.99346 9.70295H3.79791V9.63506C3.79791 9.42349 3.88001 8.88193 3.9637 8.54247C4.4042 6.74727 5.59153 5.2647 7.24778 4.44052C7.91091 4.11053 8.64036 3.90054 9.39507 3.8216C9.71874 3.78844 10.4671 3.80107 10.7861 3.8437ZM17.4032 7.02042C17.3984 8.63562 17.3921 9.96189 17.389 9.96504C17.3842 9.9682 17.3258 9.93978 17.2595 9.90189C17.1474 9.83715 16.9958 9.78031 16.8711 9.75663C16.8237 9.74716 16.8237 9.74558 16.8237 9.64769C16.8237 9.52769 16.7558 8.96877 16.7116 8.73193C16.5569 7.89197 16.2316 7.06621 15.7832 6.36203L15.6554 6.16308V5.1226V4.08211H16.5348H17.4127L17.4032 7.02042ZM16.7779 10.3456C16.9927 10.4198 17.1869 10.5824 17.2879 10.775C17.4 10.9882 17.3921 10.7671 17.3921 13.8475C17.3921 16.909 17.3984 16.7037 17.2942 16.9185C17.2279 17.0558 17.0558 17.2279 16.9185 17.2942C16.7306 17.3858 16.6769 17.3921 16.1338 17.3921H15.6411L15.6348 15.5085L15.6301 13.6265L15.5954 13.4939C15.4533 12.9618 15.068 12.5686 14.5407 12.4155C14.4317 12.3839 14.3796 12.3792 14.1475 12.3792C13.9154 12.3792 13.8633 12.3839 13.7544 12.4155C13.227 12.5686 12.8418 12.9618 12.6997 13.4939L12.6649 13.6265L12.6602 15.5085L12.6539 17.3921H12.0713H11.4887L11.4839 15.4848L11.4792 13.5791L11.435 13.4402C11.2724 12.9207 10.9092 12.5655 10.374 12.4076C10.2366 12.3665 9.76768 12.3665 9.6319 12.4076C9.36507 12.4881 9.16929 12.597 8.98929 12.7644C8.78562 12.9555 8.65773 13.1623 8.57089 13.4402L8.52668 13.5791L8.52194 15.4848L8.5172 17.3921H7.9346H7.35199L7.34567 15.5085L7.34093 13.6265L7.3062 13.4939C7.1641 12.9618 6.77885 12.5686 6.2515 12.4155C6.14256 12.3839 6.09046 12.3792 5.85836 12.3792C5.62626 12.3792 5.57416 12.3839 5.46522 12.4155C4.93787 12.5686 4.55262 12.9618 4.41052 13.4939L4.37578 13.6265L4.37105 15.5101L4.36473 17.3921H3.87212C3.32898 17.3921 3.2753 17.3858 3.08741 17.2942C2.95005 17.2279 2.77795 17.0558 2.71164 16.9185C2.60743 16.7037 2.61375 16.909 2.61375 13.8475C2.61375 11.4334 2.6169 11.0561 2.63743 10.9771C2.72269 10.6519 2.98479 10.3977 3.31162 10.3266C3.3953 10.3092 4.47999 10.3061 10.0424 10.3077L16.6737 10.3108L16.7779 10.3456ZM6.05256 12.9949C6.33518 13.0612 6.57044 13.2697 6.68254 13.5491L6.72675 13.6581L6.73148 15.5243L6.73464 17.3921H5.85836H4.98208V15.5638C4.98208 13.5491 4.97734 13.6581 5.08155 13.4449C5.18102 13.2428 5.42417 13.0518 5.65468 12.9965C5.77784 12.9665 5.92941 12.9665 6.05256 12.9949ZM10.2777 13.017C10.5413 13.1102 10.7434 13.3139 10.8429 13.587L10.8792 13.6896L10.884 15.5401L10.8887 17.3921H10.0029H9.11718L9.12192 15.5401L9.12666 13.6896L9.16297 13.587C9.21507 13.4418 9.29244 13.3233 9.39822 13.2223C9.53085 13.096 9.6619 13.0249 9.83715 12.987C9.9382 12.9649 10.1719 12.9807 10.2777 13.017ZM14.3417 12.9949C14.6243 13.0612 14.8596 13.2697 14.9717 13.5491L15.0159 13.6581L15.0206 15.5243L15.0238 17.3921H14.1475H13.2712V15.5638C13.2712 13.5491 13.2665 13.6581 13.3707 13.4449C13.4702 13.2428 13.7133 13.0518 13.9438 12.9965C14.067 12.9665 14.2186 12.9665 14.3417 12.9949Z" fill="#8B8B8B"/>
</svg>
