<svg width="28" height="28" viewBox="0 0 28 28" fill="none" xmlns="http://www.w3.org/2000/svg">
<g clip-path="url(#clip0_4_840)">
<path d="M4.46544 0.511513C4.22793 0.772385 4.19678 1.48102 4.31749 3.77826C4.48102 6.8698 4.4927 7.64852 4.43819 10.082C4.38368 12.4571 4.40315 16.3858 4.47712 18.2158C4.54721 20.0069 4.6757 22.3625 4.73021 22.9505L4.75357 23.1685L4.57057 23.2152C4.0644 23.3437 3.42974 23.7954 3.21948 24.1808C2.93914 24.6987 2.92746 25.3723 3.18444 25.8862C3.34408 26.2094 3.77627 26.5988 4.20457 26.8129C5.4077 27.4086 7.1754 27.6656 11.5635 27.8876C15.3481 28.0822 21.134 28.0161 23.6999 27.7513C24.8524 27.6345 25.4754 27.323 25.7752 26.7078C26.075 26.0965 26.075 25.859 25.7752 21.5838C25.6078 19.1931 25.5844 18.6246 25.5416 16.5221C25.5027 14.5947 25.5299 11.7329 25.6273 7.7809C25.6818 5.60826 25.6896 3.34996 25.6506 2.02613C25.6195 1.07609 25.6078 1.02547 25.3586 0.920343C25.1717 0.84247 24.9965 0.881407 24.8563 1.02936L24.7434 1.14617L24.7317 1.738C24.724 2.06507 24.7356 2.57124 24.7512 2.86326L24.7824 3.40058H24.2918H23.8012L23.7778 2.31426C23.7544 1.15396 23.7389 1.06441 23.5481 0.932024C23.4975 0.89698 23.3807 0.869726 23.2794 0.869726C23.1276 0.869726 23.0731 0.889194 22.9796 0.986534C22.9173 1.04883 22.8589 1.13839 22.8472 1.189C22.8394 1.23962 22.8472 1.738 22.8667 2.29869C22.8901 2.85937 22.894 3.34217 22.8823 3.37722C22.8628 3.42784 22.7927 3.43952 22.5085 3.43952H22.162L22.1386 3.19422C22.123 3.06183 22.0724 2.5323 22.0179 2.01834L21.9244 1.08388L21.7882 0.955385C21.5974 0.784065 21.3949 0.780172 21.2041 0.947598C21.1301 1.01379 21.0601 1.11502 21.0484 1.17343C21.0328 1.23183 21.0678 1.71464 21.1224 2.24807C21.1769 2.78539 21.2197 3.26041 21.2197 3.31103C21.2197 3.40447 21.2197 3.40447 20.7641 3.39279L20.3047 3.38111L20.2969 3.24483C20.2502 2.50115 20.1528 1.40315 20.1217 1.28245C20.0244 0.881407 19.5493 0.807428 19.2962 1.15396L19.2184 1.25909L19.304 2.24417C19.3508 2.78149 19.3897 3.25652 19.3897 3.29156C19.3897 3.35386 19.3469 3.36164 19.0432 3.36164C18.8563 3.36164 18.6188 3.34996 18.5175 3.33828L18.3384 3.31103V3.15139C18.3384 3.06573 18.3034 2.62964 18.2644 2.18966C18.1866 1.33696 18.1554 1.23573 17.9646 1.15007C17.7193 1.03715 17.4234 1.13839 17.3261 1.3759C17.2832 1.48102 17.3144 2.11568 17.4195 3.13581L17.4351 3.28377H17.0107C16.7771 3.28377 16.5824 3.27988 16.5824 3.27209C16.5785 3.2682 16.5551 2.85158 16.5318 2.3493C16.4928 1.60951 16.4695 1.41483 16.4189 1.33307C16.2242 1.03715 15.7764 1.0722 15.6168 1.39536C15.5739 1.48492 15.5739 1.64456 15.609 2.36098C15.6362 2.83211 15.6479 3.22147 15.644 3.22926C15.6362 3.23315 15.3987 3.22926 15.1145 3.21758L14.6005 3.19422V2.45054C14.6005 1.41483 14.5772 1.20458 14.4448 1.06441C14.3864 1.00211 14.2929 0.939812 14.2345 0.924236C14.0632 0.881407 13.8296 0.970961 13.74 1.11502C13.6622 1.23573 13.6622 1.27856 13.6855 2.20134L13.7128 3.16696H13.1443H12.5759L12.572 2.57124C12.5681 1.71853 12.5369 1.44209 12.4201 1.31749C12.2332 1.11892 11.9412 1.12671 11.7504 1.33696L11.6414 1.45377V2.2909V3.12803H10.9795C10.4772 3.12803 10.3176 3.11634 10.3176 3.07741C10.3176 3.05405 10.2903 2.74256 10.2592 2.38824C10.1891 1.65624 10.1346 1.27856 10.0839 1.17732C9.94766 0.928131 9.57777 0.865831 9.38309 1.06051C9.22345 1.22015 9.21177 1.3136 9.28185 1.87428C9.313 2.14683 9.35194 2.54009 9.36751 2.74645L9.39477 3.12803H8.88081C8.60047 3.12803 8.35906 3.12803 8.34349 3.12803C8.32402 3.12803 8.30066 2.96449 8.28509 2.76592C8.24226 2.16241 8.13713 1.40705 8.07872 1.23962C7.93855 0.858046 7.39734 0.84247 7.2416 1.21626C7.20266 1.3136 7.20655 1.44987 7.27664 1.9872C7.31947 2.34541 7.37008 2.75813 7.38177 2.8983L7.40902 3.15918L6.78994 3.18254C6.4473 3.19422 5.96059 3.22147 5.70362 3.24094C5.45053 3.2643 5.23249 3.27209 5.22081 3.26041C5.20913 3.24873 5.18966 2.74645 5.17408 2.14294C5.14683 0.924236 5.13125 0.83079 4.90153 0.589386C4.74578 0.421959 4.57447 0.39081 4.46544 0.511513ZM16.2943 4.17541C19.8608 4.31169 20.8381 4.33505 22.855 4.33505H24.8057L24.7863 4.63486C24.7629 4.91909 24.7434 5.83799 24.6461 10.487C24.5721 13.9795 24.6033 17.4994 24.724 19.6175C24.7707 20.4352 24.9108 22.4715 24.9342 22.6779L24.9498 22.8181L24.5137 22.8609C24.0581 22.9076 21.3871 23.0089 21.3599 22.9816C21.3482 22.9738 21.3599 22.3275 21.3832 21.5449C21.4027 20.7544 21.4105 19.5552 21.3949 18.8388C21.3793 18.1301 21.3599 17.0906 21.3521 16.5221C21.3404 15.4669 21.3092 15.136 21.173 14.6921C20.9238 13.8705 20.3125 13.2359 19.5454 12.9984C19.4286 12.9633 19.3079 12.9283 19.2807 12.9166C19.2456 12.9049 19.2651 12.8504 19.3508 12.7219C19.709 12.2041 19.7129 11.5149 19.3663 10.8218C19.1794 10.4519 19.0276 10.2534 18.6616 9.89903C18.1398 9.39286 17.5402 9.03854 16.6564 8.71537C16.1074 8.5129 15.901 8.39999 15.7336 8.2092C15.6129 8.07293 15.6129 8.06514 15.6129 7.6602C15.6129 7.18518 15.5623 7.02165 15.3715 6.90484C15.2118 6.8075 15.0444 6.8075 14.8887 6.90095C14.694 7.01775 14.6395 7.18907 14.6395 7.6602V8.07293L14.5071 8.22088C14.3358 8.41167 14.1022 8.53627 13.5687 8.72705C12.0346 9.27605 10.9795 10.2417 10.6874 11.363C10.5667 11.8381 10.6446 12.352 10.8977 12.7219C10.9834 12.8465 11.0067 12.9049 10.9717 12.9166C10.119 13.1658 9.58556 13.5824 9.26238 14.2482C8.97426 14.8439 8.95089 14.9958 8.90028 16.6778C8.85355 18.3404 8.84577 20.8752 8.8886 22.1834L8.91975 23.0322L8.26562 23.0011C7.9074 22.9855 7.16762 22.9738 6.6303 22.9738C5.75813 22.9738 5.64521 22.966 5.64521 22.9115C5.64521 22.8765 5.61796 22.456 5.58681 21.9732C5.50504 20.7233 5.41938 18.8894 5.36876 17.3787C5.31425 15.6577 5.31425 11.2929 5.37266 9.54471C5.41938 8.16248 5.39602 6.8698 5.29478 4.94245C5.26753 4.42071 5.26753 4.23381 5.30257 4.21435C5.56734 4.05081 12.4201 4.02356 16.2943 4.17541ZM15.6791 9.29163C15.7881 9.35003 16.0606 9.46295 16.2826 9.54471C17.1742 9.88346 17.6921 10.1949 18.1321 10.6544C18.6265 11.1761 18.8056 11.7368 18.611 12.1418C18.5214 12.3248 18.4241 12.4026 17.8945 12.7102C17.5986 12.8815 17.474 13.0451 17.4507 13.2904C17.4351 13.4695 17.4429 13.4928 17.5636 13.6135L17.696 13.7459L18.3384 13.7654C18.8329 13.781 19.0354 13.8043 19.2223 13.8666C19.6973 14.0185 19.9932 14.2755 20.1879 14.6999C20.3942 15.1554 20.4059 15.2605 20.4527 17.0672C20.5033 19.1736 20.5072 19.6331 20.4643 21.5137L20.4332 23.0166L20.3086 23.04C20.1139 23.0789 12.1631 23.1101 10.9405 23.075L9.83085 23.0439L9.8036 22.0705C9.76856 20.6221 9.76856 18.722 9.80749 16.9504C9.83864 15.5214 9.85032 15.3462 9.9243 15.0853C10.0723 14.5753 10.2436 14.3144 10.5667 14.0886C10.9016 13.8588 11.1819 13.7888 11.875 13.7693C12.6693 13.7498 12.8095 13.6797 12.8095 13.306C12.8095 13.0334 12.681 12.8893 12.1982 12.6129C11.6686 12.3092 11.5363 12.1145 11.5752 11.6901C11.6063 11.3397 11.7971 10.9931 12.167 10.6194C12.6304 10.156 13.0898 9.88346 13.9503 9.5525C14.4448 9.3695 14.7524 9.21765 14.9704 9.05412L15.1262 8.9412L15.3014 9.0658C15.3987 9.13588 15.5662 9.23712 15.6791 9.29163ZM25.0121 23.9667C25.0705 24.5196 25.1094 25.5981 25.0783 25.8317C25.0121 26.3223 24.833 26.5754 24.4397 26.7078C24.2684 26.7662 24.2373 26.7623 23.918 26.6844C22.8044 26.4119 22.1542 25.9252 22.1542 25.3684C22.1542 24.9751 22.3294 24.5858 22.6214 24.3366C22.8122 24.1769 23.2794 23.9394 23.5208 23.881C23.696 23.8421 24.3696 23.7837 24.7707 23.772L24.9926 23.7642L25.0121 23.9667ZM9.46096 23.9589C12.5175 24.0601 18.2411 24.0485 21.099 23.9316L21.7414 23.9083L21.6558 24.029C21.3832 24.4106 21.1924 25.0997 21.2353 25.5514C21.2742 26.003 21.5896 26.5131 22.0335 26.848L22.1658 26.9492L21.6636 26.9726C18.8212 27.1166 14.3475 27.1088 11.3494 26.957C9.81917 26.8791 7.89962 26.7273 7.06638 26.6221C5.68415 26.4469 4.63676 26.116 4.19678 25.7188C3.99821 25.5397 3.93202 25.3879 3.93202 25.0997C3.93591 24.43 4.53942 24.0407 5.78149 23.9044C5.98396 23.881 8.05147 23.9122 9.46096 23.9589Z" fill="#1DBF73" stroke="#1DBF73" stroke-width="0.3"/>
<path d="M23.5213 24.6517C23.276 24.6907 23.1125 24.9243 23.1553 25.1813C23.1826 25.3565 23.3928 25.5551 23.5486 25.5551C23.79 25.5551 24.1015 25.2085 24.047 24.9983C23.9925 24.7724 23.7511 24.6167 23.5213 24.6517Z" fill="#1DBF73" stroke="#1DBF73" stroke-width="0.3"/>
</g>
<defs>
<clipPath id="clip0_4_840">
<rect width="28" height="28" fill="white"/>
</clipPath>
</defs>
</svg>
