<svg width="28" height="28" viewBox="0 0 28 28" fill="none" xmlns="http://www.w3.org/2000/svg">
<g clip-path="url(#clip0_4_823)">
<path d="M4.58221 26.6761C4.54653 26.6761 4.511 26.6715 4.4765 26.6624C4.42437 26.6486 4.37548 26.6246 4.33261 26.5919C4.28975 26.5591 4.25376 26.5183 4.22669 26.4716C4.19962 26.425 4.182 26.3734 4.17485 26.32C4.1677 26.2665 4.17116 26.2122 4.18501 26.1601L5.17422 22.4346C5.34826 21.7747 5.34651 21.0807 5.16915 20.4217C4.99179 19.7627 4.64499 19.1616 4.16325 18.6781L1.80899 16.3249C1.29864 15.8133 0.978192 15.1429 0.900664 14.4245L0.00567816 6.03421C-0.0237672 5.74066 0.0620881 5.44715 0.245095 5.21574C0.428101 4.98434 0.693918 4.83315 0.986357 4.79416C1.2788 4.75516 1.57494 4.8314 1.81219 5.00677C2.04944 5.18214 2.20921 5.44289 2.25772 5.7339L3.5733 11.655C3.57563 11.6651 3.57748 11.6751 3.57884 11.6851C3.65869 12.2355 3.89886 12.7567 4.22155 13.0793C4.22545 13.0832 4.22956 13.0873 4.23346 13.0917L8.59528 17.8334C8.63178 17.8731 8.6601 17.9196 8.67864 17.9702C8.69717 18.0209 8.70556 18.0746 8.70331 18.1285C8.70106 18.1824 8.68822 18.2353 8.66553 18.2842C8.64284 18.3331 8.61073 18.377 8.57105 18.4135C8.53137 18.45 8.48489 18.4784 8.43427 18.4969C8.38364 18.5154 8.32986 18.5238 8.27599 18.5216C8.22212 18.5193 8.16923 18.5065 8.12032 18.4838C8.07141 18.4611 8.02746 18.429 7.99096 18.3893L3.63509 13.6537C3.1915 13.2068 2.87558 12.5393 2.76905 11.8186L1.45367 5.89873C1.45134 5.8886 1.44949 5.87855 1.44812 5.86856C1.43691 5.79365 1.39927 5.72523 1.34201 5.67565C1.28475 5.62607 1.21164 5.5986 1.1359 5.59821C1.09166 5.59822 1.0479 5.60754 1.00749 5.62556C0.967076 5.64358 0.930904 5.6699 0.901324 5.70281C0.871744 5.73572 0.849418 5.77448 0.835795 5.81658C0.822172 5.85868 0.817557 5.90318 0.82225 5.94718L1.71723 14.3381C1.77452 14.8699 2.01169 15.3663 2.3895 15.745L4.74376 18.0991C5.32684 18.6842 5.74661 19.4118 5.96135 20.2095C6.17609 21.0072 6.17831 21.8472 5.9678 22.646L4.97859 26.3715C4.95527 26.4588 4.90378 26.536 4.83211 26.5911C4.76045 26.6462 4.6726 26.6761 4.58221 26.6761Z" fill="white" stroke="white" stroke-width="0.2"/>
<path d="M11.5718 26.6761C11.5386 26.6761 11.5056 26.6721 11.4734 26.6642C11.4211 26.6514 11.3717 26.6283 11.3283 26.5964C11.2848 26.5645 11.2481 26.5243 11.2202 26.4782C11.1922 26.432 11.1737 26.3808 11.1655 26.3275C11.1574 26.2742 11.1598 26.2198 11.1727 26.1675L12.2196 21.9147C12.3776 21.2636 12.366 20.5828 12.1859 19.9375C12.0058 19.2922 11.6633 18.7038 11.191 18.2286L6.95828 13.9961C6.81237 13.8506 6.61472 13.7689 6.40866 13.7689C6.20261 13.7689 6.00496 13.8506 5.85905 13.9961C5.79771 14.0551 5.75155 14.1281 5.7245 14.2088C5.69744 14.2895 5.69029 14.3755 5.70366 14.4596C5.72911 14.6523 5.84078 14.8603 6.01054 15.0298L6.02101 15.0409L6.7255 15.8004C6.79957 15.8802 6.8389 15.9862 6.83483 16.095C6.83077 16.2038 6.78365 16.3066 6.70384 16.3806C6.62403 16.4547 6.51807 16.494 6.40926 16.49C6.30045 16.4859 6.19771 16.4388 6.12364 16.359L5.42428 15.6056C5.12828 15.3076 4.9384 14.9391 4.89057 14.5674C4.86062 14.3585 4.88022 14.1454 4.9478 13.9455C5.01537 13.7456 5.12902 13.5643 5.27956 13.4164C5.57951 13.1171 5.98594 12.949 6.40969 12.949C6.83343 12.949 7.23987 13.1171 7.53981 13.4164L11.7721 17.6489C12.344 18.2242 12.7587 18.9365 12.9768 19.7178C13.1948 20.4991 13.2088 21.3232 13.0175 22.1115L11.9718 26.3643C11.9497 26.4536 11.8983 26.5329 11.8257 26.5894C11.7532 26.646 11.6637 26.6765 11.5718 26.6761Z" fill="white" stroke="white" stroke-width="0.2"/>
<path d="M23.4179 26.6762C23.3274 26.6761 23.2395 26.6461 23.1679 26.5909C23.0962 26.5357 23.0447 26.4584 23.0215 26.3709L22.0323 22.6455C21.8218 21.8467 21.824 21.0067 22.0388 20.209C22.2535 19.4113 22.6733 18.6837 23.2564 18.0985L25.6106 15.7444C25.9884 15.3657 26.2256 14.8694 26.2829 14.3375L27.1779 5.94722C27.1826 5.90322 27.178 5.85873 27.1643 5.81663C27.1507 5.77453 27.1284 5.73577 27.0988 5.70286C27.0692 5.66995 27.0331 5.64363 26.9926 5.62561C26.9522 5.60759 26.9085 5.59827 26.8642 5.59826C26.7885 5.59862 26.7154 5.62607 26.6582 5.67566C26.6009 5.72525 26.5633 5.7937 26.5522 5.86861C26.5506 5.87866 26.5487 5.88913 26.5465 5.89878L25.2311 11.8186C25.1235 12.5393 24.8086 13.2069 24.3652 13.6535L20.0088 18.3887C19.9726 18.4296 19.9286 18.4628 19.8794 18.4864C19.8303 18.51 19.7769 18.5236 19.7224 18.5264C19.6679 18.5292 19.6134 18.5211 19.5621 18.5025C19.5108 18.484 19.4637 18.4555 19.4236 18.4185C19.3834 18.3816 19.3511 18.337 19.3283 18.2874C19.3056 18.2378 19.293 18.1842 19.2912 18.1297C19.2895 18.0751 19.2986 18.0208 19.3181 17.9699C19.3375 17.9189 19.367 17.8723 19.4047 17.8329L23.7665 13.0911C23.7702 13.0868 23.7741 13.0827 23.7782 13.0788C24.1009 12.7561 24.341 12.2349 24.4207 11.6846C24.4223 11.6745 24.424 11.664 24.4264 11.6544L25.7424 5.73395C25.7901 5.44214 25.9496 5.18041 26.1871 5.00429C26.4246 4.82816 26.7214 4.75152 27.0145 4.79063C27.3075 4.82973 27.5738 4.98151 27.7568 5.21374C27.9398 5.44596 28.0252 5.74037 27.9947 6.03446L27.0999 14.4245C27.0224 15.1429 26.7021 15.8134 26.1918 16.3249L23.8373 18.679C23.3555 19.1624 23.0088 19.7635 22.8314 20.4226C22.6541 21.0816 22.6524 21.7756 22.8265 22.4355L23.8155 26.1609C23.8294 26.2131 23.8328 26.2674 23.8257 26.3209C23.8185 26.3743 23.8009 26.4258 23.7739 26.4725C23.7468 26.5191 23.7108 26.56 23.6679 26.5927C23.6251 26.6255 23.5762 26.6494 23.524 26.6633C23.4894 26.6721 23.4537 26.6764 23.4179 26.6762Z" fill="white" stroke="white" stroke-width="0.2"/>
<path d="M16.4273 26.6762C16.3355 26.6762 16.2464 26.6453 16.1742 26.5887C16.1019 26.532 16.0508 26.4527 16.0289 26.3636L14.9833 22.1108C14.7919 21.3225 14.8059 20.4983 15.024 19.717C15.242 18.9357 15.6568 18.2234 16.2286 17.6482L20.4609 13.4157C20.761 13.1166 21.1674 12.9487 21.5911 12.9487C22.0147 12.9487 22.4211 13.1166 22.7212 13.4157C22.8719 13.5635 22.9857 13.7447 23.0535 13.9446C23.1213 14.1445 23.141 14.3576 23.1112 14.5666C23.0623 14.9384 22.8725 15.3068 22.5775 15.6049L21.8781 16.3582C21.8041 16.438 21.7013 16.4852 21.5925 16.4892C21.4837 16.4933 21.3777 16.4539 21.2979 16.3799C21.2181 16.3058 21.171 16.2031 21.1669 16.0943C21.1629 15.9855 21.2022 15.8795 21.2763 15.7997L21.9808 15.0402L21.9912 15.0291C22.2768 14.7438 22.4459 14.2985 22.1427 13.9953C21.9968 13.8498 21.7992 13.7681 21.5931 13.7681C21.3871 13.7681 21.1894 13.8498 21.0435 13.9953L16.8112 18.2278C16.3389 18.7031 15.9964 19.2914 15.8163 19.9368C15.6362 20.5821 15.6246 21.2628 15.7826 21.9139L16.8295 26.1667C16.8423 26.2191 16.8448 26.2735 16.8366 26.3268C16.8285 26.3801 16.8099 26.4313 16.782 26.4774C16.7541 26.5235 16.7173 26.5637 16.6739 26.5956C16.6304 26.6276 16.5811 26.6506 16.5287 26.6635C16.4956 26.6719 16.4615 26.6761 16.4273 26.6762Z" fill="white" stroke="white" stroke-width="0.2"/>
<path d="M13.9985 15.7545C13.9077 15.7544 13.8195 15.7243 13.7476 15.6689L11.2913 13.774C11.1858 13.6919 10.2323 12.9529 9.2458 12.0165C7.72002 10.5695 6.16016 8.77481 6.16016 6.43307C6.16016 3.99033 8.14842 2.00104 10.5922 2.00104C11.2424 1.99903 11.885 2.14094 12.4739 2.41659C13.0629 2.69224 13.5835 3.0948 13.9985 3.59539C14.4133 3.09461 14.9339 2.69186 15.5228 2.41603C16.1118 2.1402 16.7544 1.99813 17.4047 2.00002C19.8487 2.00002 21.8368 3.98828 21.8368 6.43204C21.8368 8.77419 20.2767 10.5691 18.7511 12.0154C17.7644 12.9511 16.8111 13.6915 16.7056 13.773L14.2493 15.6678C14.1776 15.7237 14.0894 15.7542 13.9985 15.7545ZM10.5922 2.82234C8.60104 2.82234 6.98124 4.44214 6.98124 6.43327C6.98124 8.46444 8.41158 10.0945 9.81071 11.4214C10.7679 12.3289 11.6908 13.0459 11.7928 13.1251L13.9985 14.8248L16.2041 13.1233C16.3067 13.0445 17.2288 12.3277 18.1862 11.4195C19.5853 10.0929 21.0157 8.46362 21.0157 6.43143C21.0157 4.44029 19.3959 2.82049 17.4047 2.82049C16.7932 2.81897 16.1913 2.97349 15.6561 3.26943C15.1209 3.56537 14.6701 3.99295 14.3462 4.51172C14.3092 4.5705 14.258 4.61894 14.1972 4.65251C14.1364 4.68609 14.0681 4.7037 13.9987 4.7037C13.9292 4.7037 13.8609 4.68609 13.8002 4.65251C13.7394 4.61894 13.6881 4.5705 13.6511 4.51172C13.3272 3.993 12.8762 3.56551 12.3409 3.26968C11.8057 2.97384 11.2038 2.81945 10.5922 2.82111V2.82234Z" fill="white" stroke="white" stroke-width="0.2"/>
</g>
<defs>
<clipPath id="clip0_4_823">
<rect width="28" height="28" fill="white"/>
</clipPath>
</defs>
</svg>
