<svg width="28" height="28" viewBox="0 0 28 28" fill="none" xmlns="http://www.w3.org/2000/svg">
<g clip-path="url(#clip0_4_798)">
<path d="M15.6424 0.875968C15.4959 0.941413 15.4304 1.04737 15.2902 1.46186C14.9256 2.51832 14.6513 2.79568 13.6011 3.15407C13.3736 3.23198 13.1586 3.31924 13.1274 3.35041C13.0214 3.44701 12.9716 3.57479 12.9903 3.72438C13.0152 3.94252 13.1399 4.04225 13.5731 4.18249C14.1402 4.36947 14.4924 4.56269 14.7292 4.81512C14.9661 5.06444 15.0876 5.29505 15.284 5.86847C15.4336 6.29542 15.5084 6.42008 15.6548 6.47617C15.8169 6.5385 16.0163 6.49176 16.1348 6.35775C16.1659 6.32659 16.2532 6.10844 16.3342 5.88094C16.6895 4.83694 16.9793 4.54711 18.0077 4.19495C18.2508 4.11393 18.4752 4.01732 18.5157 3.97681C18.6341 3.86773 18.6684 3.68698 18.6061 3.52492C18.5375 3.34729 18.4596 3.29431 18.0327 3.15407C16.998 2.81126 16.6521 2.46534 16.328 1.45562C16.194 1.04737 16.141 0.953879 15.9914 0.882201C15.8636 0.822989 15.7701 0.819873 15.6424 0.875968ZM15.9415 2.7427C16.0818 2.9889 16.4931 3.40338 16.7456 3.54362C16.8515 3.60284 16.9388 3.65893 16.9388 3.66828C16.9388 3.67763 16.8702 3.72126 16.7861 3.77112C16.4464 3.96122 16.0444 4.37571 15.873 4.70916L15.8106 4.8307L15.6985 4.63125C15.5582 4.37882 15.1188 3.93941 14.857 3.78982L14.6607 3.67451L14.857 3.54986C15.2279 3.31612 15.5146 3.02941 15.6985 2.70842C15.7483 2.62116 15.8013 2.54637 15.8106 2.54637C15.8231 2.54637 15.8823 2.63675 15.9415 2.7427Z" fill="white"/>
<path d="M11.187 3.69323C11.0468 3.78049 11.0219 3.821 10.9065 4.1638C10.6323 4.97719 10.4173 5.20157 9.63816 5.46335C9.46364 5.51945 9.28912 5.59112 9.25173 5.61606C9.08656 5.72201 9.02734 6.00873 9.1333 6.18948C9.20186 6.30478 9.28601 6.35153 9.64439 6.47307C10.4173 6.73797 10.6292 6.953 10.9097 7.76327C10.9751 7.9596 11.053 8.12477 11.0998 8.17152C11.2712 8.33981 11.5641 8.33357 11.7106 8.15594C11.7542 8.10608 11.8259 7.94714 11.8726 7.8069C12.1438 6.97793 12.3868 6.73173 13.2033 6.45437C13.3747 6.39828 13.5462 6.32348 13.5804 6.29544C13.7269 6.16143 13.7643 5.95575 13.677 5.77188C13.6116 5.63475 13.5337 5.58489 13.194 5.47582C12.7951 5.34493 12.4398 5.15171 12.2965 4.98966C12.15 4.82137 12.0129 4.54712 11.8913 4.17315C11.8384 4.01733 11.776 3.85216 11.748 3.81165C11.6389 3.64648 11.3584 3.59038 11.187 3.69323ZM11.6109 5.5288C11.6794 5.61606 11.8197 5.75006 11.9225 5.82174C12.0222 5.89653 12.1064 5.9651 12.1064 5.97756C12.1064 5.98691 12.0752 6.00873 12.0347 6.02742C11.9225 6.0804 11.6109 6.37958 11.5018 6.53852L11.4021 6.68499L11.2494 6.4793C11.1621 6.364 11 6.20194 10.8847 6.11468L10.679 5.96198L10.7912 5.88718C10.9502 5.78123 11.1559 5.58178 11.2867 5.40102C11.3927 5.26078 11.4021 5.25455 11.4426 5.30753C11.4644 5.34181 11.5392 5.43842 11.6109 5.5288Z" fill="white"/>
<path d="M5.57503 9.50151C5.47842 9.53891 5.34753 9.71031 5.33195 9.8225C5.3226 9.87859 5.31013 10.0282 5.30078 10.156C5.2665 10.7076 4.90188 11.2374 4.34716 11.5396L4.19445 11.6238L3.46833 11.1501C3.06943 10.8883 2.67364 10.6452 2.58638 10.6047C2.19683 10.424 1.7356 10.3866 1.32423 10.5019C0.732111 10.6639 0.258416 11.1314 0.068314 11.7297C-0.0251786 12.0352 -0.0220622 12.5182 0.0745468 12.8049C0.174272 13.0947 0.311395 13.316 0.510846 13.5186C0.644852 13.6557 1.83532 14.4441 5.6654 16.9311C8.40162 18.7105 10.6423 20.169 10.6423 20.1752C10.6423 20.1784 10.1125 20.5243 9.46744 20.9419C8.53563 21.5434 8.24268 21.749 8.07128 21.9204C7.72224 22.2695 7.55707 22.6715 7.55707 23.1764C7.55707 23.3197 7.57889 23.5254 7.60693 23.6314C7.7721 24.2702 8.32371 24.8156 8.95634 24.9589C9.34278 25.0493 9.85387 24.987 10.206 24.8062C10.3525 24.7346 11.1721 24.2048 13.5188 22.6746C13.7712 22.5063 13.9925 22.3723 14.0081 22.3723C14.0236 22.3723 14.8807 22.9239 15.9153 23.594C18.0719 24.9995 18.0719 24.9995 18.6359 24.9963C18.8634 24.9963 19.0037 24.9776 19.1502 24.9309C19.8015 24.7221 20.2721 24.2017 20.4123 23.5347C20.4964 23.1452 20.4466 22.7775 20.2596 22.3879C20.0726 21.9921 19.8887 21.8301 18.8447 21.1538C18.3368 20.8235 17.7883 20.4682 17.6293 20.3622L17.3395 20.169L18.611 19.3432C19.3091 18.8882 21.1166 17.7133 22.625 16.7316C24.1333 15.7499 25.8037 14.6654 26.3335 14.3226C27.4055 13.6276 27.5956 13.4656 27.7889 13.0979C28.3218 12.0819 27.8044 10.8322 26.7075 10.4925C26.427 10.4053 25.9813 10.399 25.7102 10.4801C25.436 10.5642 25.2926 10.6421 24.4294 11.2062L23.6378 11.7204L23.4383 11.577C23.1703 11.3869 22.974 11.1594 22.8431 10.8914C22.7278 10.6577 22.6405 10.3242 22.6405 10.0999C22.6405 9.76329 22.3694 9.53891 22.0796 9.63863C22.0173 9.66045 20.1536 10.8727 17.941 12.3343L13.9208 14.9895L11.3217 13.2007C9.89439 12.219 8.2084 11.0566 7.57265 10.6203C5.7776 9.38308 5.91472 9.47034 5.76825 9.47346C5.69968 9.47346 5.61242 9.48593 5.57503 9.50151ZM7.96844 11.9572C8.98439 12.6584 10.6299 13.7897 11.624 14.4722C12.6181 15.1547 13.4409 15.7219 13.4533 15.7312C13.4752 15.7499 13.5499 17.6665 13.5312 17.6852C13.5281 17.6883 12.9859 17.3424 12.3252 16.9124C11.6645 16.4823 9.76661 15.2482 8.10244 14.1668C6.44139 13.0885 5.06705 12.191 5.05147 12.1785C5.03277 12.1629 5.06082 12.1224 5.1138 12.0819C5.51893 11.7703 5.87109 11.3184 6.01756 10.9164C6.06431 10.7886 6.10482 10.6857 6.11105 10.6857C6.11728 10.6857 6.95249 11.2592 7.96844 11.9572ZM21.9082 10.9538C22.0141 11.309 22.3351 11.7952 22.6437 12.0663C22.787 12.191 22.8182 12.2346 22.787 12.2627C22.7683 12.2845 21.5997 13.048 20.1942 13.9611C18.7886 14.8742 16.9188 16.0896 16.0368 16.6599C15.158 17.2333 14.4319 17.6977 14.4257 17.6883C14.4132 17.6759 14.3477 15.7593 14.3602 15.7468C14.3633 15.7437 15.8249 14.7776 17.6075 13.5996C19.3901 12.4216 21.0667 11.3153 21.3316 11.1376C21.5965 10.96 21.8272 10.8198 21.8427 10.8229C21.8583 10.826 21.8864 10.8852 21.9082 10.9538ZM2.12515 11.3651C2.30902 11.4368 19.1533 22.3786 19.2966 22.5219C19.4649 22.6902 19.5335 22.8554 19.5491 23.139C19.5615 23.3633 19.5522 23.4163 19.4867 23.5628C19.3932 23.7622 19.2343 23.9336 19.0473 24.0303C18.8541 24.13 18.4614 24.1456 18.2744 24.0645C18.1716 24.0178 12.1507 20.1254 11.7019 19.8169C11.6583 19.7857 9.29603 18.2493 6.45074 16.4044C3.60545 14.5563 1.21827 12.9888 1.1466 12.9202C0.95961 12.7395 0.875467 12.5307 0.87235 12.244C0.87235 12.0507 0.887932 11.9791 0.95961 11.8326C1.16529 11.4119 1.69509 11.2 2.12515 11.3651ZM26.5143 11.3589C26.7012 11.4212 26.9225 11.6207 27.0285 11.8201C27.1001 11.9572 27.1126 12.0165 27.1126 12.244C27.1126 12.4715 27.1001 12.5307 27.0285 12.6647C26.9848 12.7488 26.9007 12.8641 26.8415 12.9202C26.7511 13.0075 25.0028 14.1512 18.4178 18.4301C17.3925 19.1001 16.5417 19.6423 16.5261 19.6392C16.47 19.6205 14.8183 18.5298 14.8214 18.5142C14.8214 18.4955 23.0239 13.1508 23.7469 12.6958C23.8559 12.6273 24.3359 12.3156 24.8127 12.004C25.2895 11.6924 25.7445 11.4088 25.8193 11.3745C25.9938 11.2966 26.3086 11.2872 26.5143 11.3589ZM13.1448 21.7958C13.1916 21.8301 12.9921 21.9672 11.5087 22.9333C10.5769 23.5379 9.76661 24.0552 9.7074 24.0801C9.64507 24.1082 9.50483 24.13 9.38018 24.13C8.98127 24.13 8.626 23.8931 8.48888 23.5316C8.36111 23.1919 8.4546 22.7525 8.70391 22.5188C8.75689 22.4689 9.39888 22.0389 10.1312 21.5621L11.4619 20.6988L12.2753 21.2286C12.7241 21.5184 13.1136 21.774 13.1448 21.7958Z" fill="white"/>
</g>
<defs>
<clipPath id="clip0_4_798">
<rect width="28" height="28" fill="white"/>
</clipPath>
</defs>
</svg>
