<svg width="20" height="20" viewBox="0 0 20 20" fill="none" xmlns="http://www.w3.org/2000/svg">
<path d="M4.85302 0.70228C4.77485 0.743143 4.73754 0.780453 4.70023 0.853296C4.66647 0.917255 4.66647 1.10203 4.66647 8.79137V16.6619H4.33779H4.00911V16.4576C4.00911 16.3244 4.00023 16.232 3.98424 16.1947C3.9416 16.0898 3.78703 15.9868 3.67155 15.9868C3.55607 15.9868 3.4015 16.0898 3.35886 16.1947C3.33931 16.2409 3.33398 16.4736 3.33398 17.385C3.33398 18.4208 3.33754 18.5327 3.36774 18.6784C3.50099 19.3251 4.01444 19.8368 4.66114 19.9683C4.81926 20.002 5.00226 20.002 10.3908 19.9985L15.9571 19.9931L16.0992 19.9523C16.721 19.7711 17.1741 19.2896 17.3002 18.6784C17.3304 18.5363 17.334 18.4279 17.334 17.7137C17.334 16.8574 17.334 16.8609 17.2469 16.7614C17.1332 16.6317 16.8596 16.6317 16.7459 16.7614C16.6589 16.8609 16.6589 16.8627 16.6589 17.6515C16.6589 18.4848 16.6518 18.5505 16.5398 18.7761C16.4119 19.0373 16.149 19.2381 15.8505 19.3002C15.6941 19.3322 15.6337 19.3322 15.4774 19.3002C15.0865 19.2185 14.7774 18.9094 14.6957 18.5185C14.6743 18.4173 14.669 18.1969 14.669 17.3228C14.669 16.4647 14.6637 16.2409 14.6441 16.1947C14.6015 16.0898 14.4469 15.9868 14.3314 15.9868C14.216 15.9868 14.0614 16.0898 14.0188 16.1947C14.0028 16.232 13.9939 16.3244 13.9939 16.4576V16.6619H13.6652H13.3365V16.4576C13.3365 16.3244 13.3276 16.232 13.3116 16.1947C13.269 16.0898 13.1144 15.9868 12.999 15.9868C12.8835 15.9868 12.7289 16.0898 12.6863 16.1947C12.6703 16.232 12.6614 16.3244 12.6614 16.4576V16.6619H12.3327H12.004V16.4576C12.004 16.3244 11.9952 16.232 11.9792 16.1947C11.9365 16.0898 11.782 15.9868 11.6665 15.9868C11.551 15.9868 11.3964 16.0898 11.3538 16.1947C11.3378 16.232 11.3289 16.3244 11.3289 16.4576V16.6619H11.0002H10.6715V16.4576C10.6715 16.3244 10.6627 16.232 10.6467 16.1947C10.604 16.0898 10.4495 15.9868 10.334 15.9868C10.2185 15.9868 10.0639 16.0898 10.0213 16.1947C10.0053 16.232 9.99642 16.3244 9.99642 16.4576V16.6619H9.66774H9.33906V16.4576C9.33906 16.3244 9.33018 16.232 9.31419 16.1947C9.27155 16.0898 9.11698 15.9868 9.0015 15.9868C8.88601 15.9868 8.73145 16.0898 8.68881 16.1947C8.67282 16.232 8.66393 16.3244 8.66393 16.4576V16.6619H8.33525H8.00657V16.4576C8.00657 16.3244 7.99769 16.232 7.9817 16.1947C7.93906 16.0898 7.78449 15.9868 7.66901 15.9868C7.55353 15.9868 7.39896 16.0898 7.35632 16.1947C7.34033 16.232 7.33145 16.3244 7.33145 16.4576V16.6619H7.00277H6.67409V16.4576C6.67409 16.3244 6.6652 16.232 6.64921 16.1947C6.60657 16.0898 6.452 15.9868 6.33652 15.9868C6.22104 15.9868 6.06647 16.0898 6.02383 16.1947C6.00784 16.232 5.99896 16.3244 5.99896 16.4576V16.6619H5.67028H5.3416V9.34213V2.02233H11.0002H16.6589V8.22284C16.6589 14.2741 16.6589 14.4269 16.6926 14.4909C16.753 14.6099 16.8578 14.6721 16.9964 14.6721C17.1386 14.6721 17.2416 14.6081 17.3056 14.482C17.3322 14.4305 17.334 13.8637 17.334 7.67208C17.334 1.48045 17.3322 0.913702 17.3056 0.862179C17.2647 0.78223 17.2274 0.744921 17.1528 0.705833C17.0284 0.641874 16.8312 0.673855 16.7459 0.77157C16.6731 0.853296 16.6589 0.915478 16.6589 1.12512V1.32944H16.3302H16.0015V1.12512C16.0015 0.862179 15.966 0.780453 15.8203 0.705833C15.6959 0.641874 15.4987 0.673855 15.4134 0.77157C15.3406 0.853296 15.3264 0.915478 15.3264 1.12512V1.32944H14.9977H14.669V1.12512C14.669 0.862179 14.6335 0.780453 14.4878 0.705833C14.3634 0.641874 14.1662 0.673855 14.0809 0.77157C14.0081 0.853296 13.9939 0.915478 13.9939 1.12512V1.32944H13.6652H13.3365V1.12512C13.3365 0.862179 13.301 0.780453 13.1553 0.705833C13.0309 0.641874 12.8337 0.673855 12.7485 0.77157C12.6756 0.853296 12.6614 0.915478 12.6614 1.12512V1.32944H12.3327H12.004V1.12512C12.004 0.862179 11.9685 0.780453 11.8228 0.705833C11.6985 0.641874 11.5012 0.673855 11.416 0.77157C11.3431 0.853296 11.3289 0.915478 11.3289 1.12512V1.32944H11.0002H10.6715V1.12512C10.6715 0.862179 10.636 0.780453 10.4903 0.705833C10.366 0.641874 10.1688 0.673855 10.0835 0.77157C10.0106 0.853296 9.99642 0.915478 9.99642 1.12512V1.32944H9.66774H9.33906V1.12512C9.33906 0.858625 9.30353 0.778677 9.14896 0.700504C9.03881 0.645428 8.86292 0.672077 8.76343 0.759132C8.68703 0.826647 8.66393 0.908371 8.66393 1.12512V1.32944H8.33525H8.00657V1.12512C8.00657 0.862179 7.97104 0.780453 7.82536 0.705833C7.70099 0.641874 7.50378 0.673855 7.4185 0.77157C7.34566 0.853296 7.33145 0.915478 7.33145 1.12512V1.32944H7.00277H6.67409V1.12512C6.67409 0.915478 6.65987 0.853296 6.58703 0.77157C6.5053 0.677408 6.30454 0.641874 6.18906 0.700504C6.03449 0.778677 5.99896 0.858625 5.99896 1.12512V1.32944H5.67028H5.3416V1.12512C5.3416 0.915478 5.32739 0.853296 5.25454 0.77157C5.17282 0.677408 4.96673 0.641874 4.85302 0.70228ZM13.9974 17.9891C14.0045 18.6411 14.0045 18.6429 14.0525 18.7992C14.104 18.968 14.1804 19.1297 14.2639 19.2505L14.3155 19.3269H9.62865C4.43906 19.3269 4.81749 19.3358 4.55987 19.2079C4.38043 19.1208 4.2152 18.9556 4.12815 18.7761C4.02155 18.5612 4.00911 18.4652 4.00911 17.8647V17.3371H8.99972H13.9921L13.9974 17.9891Z" fill="#8B8B8B"/>
<path d="M12.634 4.71042C12.5363 4.74951 12.5025 4.77615 12.4581 4.85255C12.435 4.89341 12.3142 5.23275 12.1916 5.60585L11.966 6.28453L11.1896 6.28986C10.5073 6.29519 10.4061 6.29874 10.3599 6.32539C10.1929 6.416 10.1271 6.62209 10.2089 6.79265C10.2391 6.85484 10.335 6.93301 10.8573 7.31854C11.1931 7.56727 11.4703 7.77869 11.4703 7.79113C11.4703 7.80179 11.3708 8.12869 11.2482 8.51423C11.1256 8.90154 11.0261 9.24798 11.0261 9.28352C11.0261 9.45763 11.1807 9.60864 11.3566 9.60864C11.4081 9.60864 11.4703 9.60154 11.4934 9.59265C11.5165 9.58377 11.8061 9.38301 12.1347 9.14849C12.4652 8.9122 12.7406 8.71854 12.7477 8.71499C12.7566 8.71321 13.0337 8.90509 13.3642 9.13961C13.6946 9.3759 13.9842 9.57844 14.0056 9.5891C14.0535 9.61397 14.2063 9.61397 14.272 9.5891C14.3342 9.566 14.4142 9.49138 14.4497 9.42209C14.5066 9.31372 14.4888 9.22489 14.2596 8.50712C14.1388 8.13047 14.0411 7.81245 14.0393 7.79824C14.0375 7.7858 14.3094 7.57438 14.6416 7.32742C14.9863 7.07336 15.2616 6.85661 15.2847 6.82286C15.3931 6.66118 15.3345 6.42844 15.1604 6.33428C15.0875 6.29519 15.0698 6.29519 14.3147 6.28631L13.5436 6.27742L13.3109 5.5792C13.1385 5.06575 13.0639 4.86676 13.0266 4.81879C12.936 4.70509 12.7672 4.6589 12.634 4.71042ZM13.0053 6.8122C13.0213 6.83352 13.0622 6.87438 13.0977 6.9028L13.1634 6.95255L13.5649 6.96143L13.9647 6.97032L13.6573 7.19773C13.3304 7.43935 13.2842 7.49443 13.2825 7.63656C13.2825 7.67032 13.3304 7.84976 13.3891 8.03453C13.4477 8.22108 13.4921 8.37387 13.4903 8.37565C13.4885 8.37742 13.3624 8.29215 13.2114 8.18377C12.9147 7.97235 12.8543 7.93859 12.7619 7.93859C12.6589 7.93859 12.5967 7.97235 12.3035 8.18022C12.149 8.29037 12.021 8.37387 12.021 8.36499C12.021 8.3561 12.0655 8.21042 12.1188 8.03986C12.2307 7.68453 12.2413 7.57971 12.1756 7.47311C12.1507 7.42869 12.0317 7.3292 11.8345 7.18352L11.5342 6.96143H11.9162C12.2769 6.96143 12.3017 6.95966 12.3764 6.92057C12.4208 6.89925 12.4741 6.85484 12.4954 6.82286C12.5167 6.79088 12.5842 6.61499 12.6446 6.43199L12.7548 6.09976L12.8667 6.43555C12.9289 6.61854 12.9911 6.7891 13.0053 6.8122Z" fill="#8B8B8B"/>
<path d="M8.92119 5.19376C8.36332 5.48513 7.81611 5.97548 7.43413 6.52624C7.03616 7.09832 6.78388 7.76457 6.68794 8.48944C6.65241 8.76482 6.66129 9.34223 6.70571 9.63538C6.97753 11.4031 8.2585 12.8067 9.9783 13.2207C10.3549 13.313 10.5237 13.3308 10.9999 13.3308C11.4618 13.3308 11.6235 13.3148 11.9859 13.2313C13.1407 12.9648 14.1339 12.2346 14.7397 11.2077C14.8072 11.0958 14.8694 10.9679 14.8818 10.9252C14.9423 10.696 14.7379 10.4669 14.5034 10.5042C14.4661 10.5113 14.3879 10.5397 14.3311 10.5681C14.0148 10.728 13.56 10.8648 13.1851 10.9146C12.9222 10.9483 12.5065 10.9483 12.2489 10.9146C10.8489 10.7298 9.6816 9.75974 9.24276 8.41837C8.95317 7.5336 9.00647 6.6204 9.39911 5.75162C9.51104 5.50644 9.52347 5.41051 9.46484 5.29502C9.42398 5.2133 9.38312 5.17599 9.29784 5.14046C9.18236 5.09249 9.08997 5.10492 8.92119 5.19376ZM8.42906 6.58842C8.37576 6.87269 8.3722 7.63132 8.42017 7.93868C8.64048 9.32802 9.49682 10.5202 10.7245 11.1455C11.2699 11.4227 11.778 11.5666 12.3945 11.6163C12.7534 11.6465 13.2562 11.6163 13.5636 11.5488C13.6098 11.5382 13.6346 11.5382 13.6275 11.5471C13.5938 11.6039 13.2225 11.9077 13.043 12.0285C11.8384 12.8387 10.307 12.8671 9.0722 12.1031C8.50012 11.7496 8.02398 11.2237 7.72373 10.6143C7.11256 9.37421 7.25114 7.91914 8.08616 6.8034C8.20698 6.64172 8.4486 6.36812 8.46104 6.37878C8.46281 6.38233 8.4486 6.4765 8.42906 6.58842Z" fill="#8B8B8B"/>
<path d="M16.8467 15.3597C16.7223 15.4255 16.6602 15.5267 16.6602 15.6671C16.6602 15.8643 16.8005 16.0046 16.9977 16.0046C17.1949 16.0046 17.3353 15.8643 17.3353 15.6671C17.3353 15.4663 17.1949 15.3295 16.9942 15.3295C16.9426 15.3313 16.8769 15.3437 16.8467 15.3597Z" fill="#8B8B8B"/>
</svg>
