<svg width="20" height="20" viewBox="0 0 20 20" fill="none" xmlns="http://www.w3.org/2000/svg">
<path d="M13.0497 1.25577C12.4793 1.32962 11.9624 1.58426 11.5447 2.00189C11.3054 2.24126 11.1602 2.44752 11.0202 2.74801C10.9285 2.94409 10.7961 3.38463 10.7961 3.49667C10.7961 3.54251 10.7706 3.54506 10.4396 3.54506H10.0831V2.90589C10.0831 2.20051 10.0703 2.12667 9.92772 2.05536C9.83095 2.00443 9.66289 2.00698 9.5814 2.06046C9.45917 2.14194 9.44644 2.21579 9.44644 2.90844V3.54506H8.86074H8.27505V2.93899C8.27505 2.6054 8.26232 2.29219 8.24959 2.24126C8.21139 2.10375 8.09425 2.01717 7.94656 2.01717C7.88035 2.01717 7.80395 2.03499 7.77085 2.05791C7.64607 2.14449 7.63843 2.19797 7.63843 2.8957V3.54506H7.04001H6.44158V2.86769V2.19033L6.355 2.10375C6.27861 2.02735 6.25314 2.01717 6.136 2.01717C6.01887 2.01717 5.9934 2.02735 5.91701 2.10375L5.83043 2.19033V2.86769V3.54506H5.232H4.63358V2.8957C4.63358 2.19797 4.62594 2.14449 4.50116 2.05791C4.46806 2.03499 4.39166 2.01717 4.32036 2.01717C4.21341 2.01717 4.18285 2.0299 4.11155 2.1012C4.05043 2.16232 4.02242 2.21834 4.00969 2.29983C4.00205 2.36094 3.99696 6.09664 4.00205 10.5988C4.00969 18.4802 4.01224 18.7909 4.05553 18.8596C4.15993 19.0175 4.38657 19.0379 4.53936 18.9004L4.62085 18.8291L4.62849 18.1517L4.63612 17.4743H5.232H5.83043V18.1237C5.83043 18.8494 5.83807 18.8876 5.9934 18.9615C6.10035 19.0124 6.16911 19.0124 6.27351 18.964C6.43394 18.8876 6.44158 18.8494 6.44158 18.1262V17.4743H7.04001H7.63588L7.64352 18.1517L7.65116 18.8291L7.73265 18.9029C7.77849 18.9437 7.84724 18.9844 7.88289 18.992C7.9873 19.0175 8.13754 18.9589 8.20375 18.8673C8.25977 18.7883 8.26232 18.7679 8.26996 18.1288L8.2776 17.4743H8.86329H9.44644V18.1211C9.44644 18.7501 9.44898 18.7679 9.505 18.852C9.58649 18.9742 9.73673 19.0251 9.86661 18.9742C9.92008 18.9538 9.98629 18.9055 10.0168 18.8673C10.0678 18.7985 10.0703 18.7603 10.078 18.1339L10.0856 17.4743H10.6687H11.2519L11.2595 18.1339C11.2672 18.7578 11.2697 18.7985 11.3206 18.8673C11.3487 18.9055 11.42 18.9538 11.476 18.9742C11.5651 19.0073 11.5931 19.0073 11.6772 18.9742C11.7332 18.9538 11.7994 18.9004 11.8325 18.852C11.8885 18.7679 11.8911 18.7476 11.8911 18.1211V17.4743H12.4895H13.0879V18.1237C13.0879 18.8545 13.0955 18.8876 13.256 18.964C13.3884 19.0277 13.5132 19.0022 13.6176 18.8876L13.6991 18.7985V12.6258V6.4506L13.7958 6.43532C14.9774 6.24179 15.8789 5.28431 15.9884 4.10274C16.0316 3.65965 15.9527 3.16818 15.777 2.77093C15.6904 2.57739 15.4689 2.24126 15.3059 2.063C14.7635 1.46458 13.885 1.15136 13.0497 1.25577ZM13.941 1.94077C14.626 2.15722 15.1302 2.67671 15.3186 3.3668C15.3823 3.59599 15.3823 4.10528 15.3186 4.33192C15.1251 5.0373 14.5801 5.58225 13.8748 5.77578C13.6481 5.83944 13.1388 5.83944 12.9097 5.77578C12.2145 5.58479 11.6975 5.08059 11.4785 4.3854C11.4276 4.22242 11.42 4.14093 11.42 3.8379C11.4225 3.50177 11.4276 3.46612 11.504 3.23948C11.7434 2.54938 12.2832 2.06555 12.9988 1.90003C13.2254 1.8491 13.7143 1.86947 13.941 1.94077ZM10.8215 4.32683C10.8877 4.71389 11.066 5.11115 11.3232 5.44728C11.7154 5.96422 12.3138 6.31818 12.9937 6.43277L13.0879 6.4506V11.6429V16.8377H8.86074H4.63358V10.497V4.15621H7.71228H10.791L10.8215 4.32683Z" fill="#8B8B8B"/>
<path d="M13.1627 2.30495C13.1143 2.32278 13.0507 2.37371 13.0176 2.42209C12.959 2.50613 12.959 2.5214 12.959 3.24461C12.959 3.85831 12.9666 3.99582 12.9972 4.06712C13.0201 4.11296 13.2289 4.3396 13.4632 4.57133C13.8171 4.92019 13.9063 4.99404 13.9852 5.00932C14.2271 5.05516 14.3952 4.88709 14.3646 4.62735C14.357 4.57133 14.2628 4.46183 13.975 4.16898L13.5956 3.78446L13.5931 3.17331C13.5931 2.77096 13.5829 2.53414 13.5625 2.47811C13.509 2.32278 13.3308 2.24638 13.1627 2.30495Z" fill="#8B8B8B"/>
<path d="M7.82825 6.12198C7.08468 6.6109 6.84531 6.78152 6.69507 6.93176C6.34111 7.28318 6.12211 7.67533 5.98969 8.205C5.95149 8.3527 5.9464 8.72449 5.93876 11.8083C5.93112 15.0525 5.93367 15.2511 5.97441 15.3352C5.99988 15.3861 6.05845 15.4447 6.10938 15.4701C6.19341 15.5109 6.36402 15.5134 8.88504 15.5083C11.8288 15.5007 11.6403 15.5109 11.7244 15.3479C11.7626 15.2791 11.7651 14.9354 11.7575 11.7701L11.7498 8.26867L11.6913 8.06495C11.6174 7.8103 11.4723 7.49708 11.3297 7.28572C11.1005 6.94704 10.8713 6.7586 9.90364 6.10925C9.05566 5.54138 8.992 5.50573 8.88504 5.50573C8.77809 5.50573 8.70679 5.54647 7.82825 6.12198ZM9.65663 6.70767C10.1175 7.01579 10.4842 7.27808 10.5708 7.36466C10.8611 7.65496 11.0674 8.06749 11.1234 8.46984C11.1412 8.60226 11.1514 9.6896 11.1514 11.7726V14.8768H8.85958H6.56774V11.7192C6.56774 8.93839 6.57284 8.53605 6.60849 8.36289C6.68488 7.9911 6.86568 7.65496 7.13561 7.38504C7.212 7.30609 7.59907 7.03362 8.07017 6.72295C8.51071 6.43265 8.87486 6.19328 8.87995 6.19328C8.8825 6.19328 9.23391 6.42501 9.65663 6.70767Z" fill="#8B8B8B"/>
</svg>
