<svg width="28" height="28" viewBox="0 0 28 28" fill="none" xmlns="http://www.w3.org/2000/svg">
<g clip-path="url(#clip0_4_833)">
<path d="M7.89133 3.78934C2.43366 5.12868 1.88066 5.26868 1.80599 5.32934C1.75933 5.36668 1.708 5.43201 1.68933 5.47401C1.66133 5.53934 1.65666 6.99534 1.65666 15.2133V24.8733H0.984662C0.326662 24.8733 0.307995 24.8757 0.209995 24.927C-0.0443384 25.06 -0.0676717 25.4543 0.165662 25.6223L0.244995 25.6783H14H27.755L27.8343 25.6223C28.0677 25.4543 28.0443 25.06 27.79 24.927C27.692 24.8757 27.6733 24.8733 27.0153 24.8733H26.3433V15.2133C26.3433 7.10501 26.3387 5.53934 26.3107 5.47634C26.2663 5.37134 26.152 5.28034 26.0097 5.23834C25.5943 5.11934 14.0537 2.31001 13.9813 2.31234C13.9347 2.31468 11.193 2.97734 7.89133 3.78934ZM13.58 4.49168C13.58 5.17768 13.5753 5.74001 13.5707 5.74001C13.566 5.74001 11.0763 6.34901 8.03833 7.09334C5.00033 7.83768 2.50366 8.44668 2.492 8.44668C2.48266 8.44668 2.47333 7.88668 2.47333 7.20301V5.96168L4.23033 5.53234C5.194 5.29434 7.686 4.68534 9.765 4.17434C11.844 3.66334 13.552 3.24568 13.5637 3.24568C13.573 3.24334 13.58 3.80568 13.58 4.49168ZM20.027 4.61301L25.5267 5.96168V7.20301C25.5267 7.88668 25.5197 8.44668 25.508 8.44668C25.4987 8.44668 23.2027 7.88668 20.405 7.20068C17.6073 6.51468 15.1153 5.90568 14.8703 5.84501L14.42 5.73534V4.48701V3.23868L14.4737 3.25268C14.5017 3.25968 17.0007 3.87101 20.027 4.61301ZM13.58 7.29634V8.01501L8.05466 9.36601C5.01666 10.1103 2.51766 10.7217 2.50366 10.7287C2.48033 10.7357 2.47333 10.584 2.47333 10.0193V9.29834L8.01033 7.94268C11.053 7.19601 13.552 6.58468 13.5637 6.58234C13.573 6.58001 13.58 6.90201 13.58 7.29634ZM20.0013 7.94734L25.5267 9.29834V10.0193C25.5267 10.584 25.5197 10.7357 25.4987 10.7287C25.4823 10.7217 22.9833 10.108 19.9453 9.36601L14.42 8.01501V7.29401C14.42 6.72934 14.427 6.57768 14.4503 6.58468C14.4643 6.59168 16.9633 7.20301 20.0013 7.94734ZM13.58 15.3487V21.8283L11.557 22.0103C10.4417 22.1107 7.96833 22.3347 6.05733 22.5073C4.14633 22.68 2.55966 22.82 2.52933 22.82H2.47333L2.478 19.432L2.485 16.044L3.542 15.7827C4.49633 15.547 4.606 15.5167 4.67133 15.456C4.809 15.323 4.80666 15.351 4.80666 14.28C4.80666 13.2043 4.809 13.2253 4.66666 13.104C4.627 13.0713 4.55233 13.034 4.49866 13.0177C4.41 12.9943 4.326 13.0107 3.479 13.2183C2.97033 13.342 2.53633 13.4493 2.51533 13.454C2.47566 13.4657 2.47333 13.4097 2.47333 12.5207V11.578L2.548 11.5617C2.59 11.5523 3.28066 11.3843 4.08333 11.1883C10.101 9.71368 11.8813 9.27734 12.6467 9.08834C13.1273 8.96934 13.5357 8.87134 13.552 8.86901C13.573 8.86668 13.58 10.178 13.58 15.3487ZM18.27 9.80234C24.4207 11.3073 25.5057 11.5733 25.5173 11.5733C25.522 11.5733 25.5267 12.0003 25.5267 12.5207C25.5267 13.4097 25.5243 13.4657 25.487 13.454C25.4637 13.447 25.032 13.342 24.5257 13.2183C23.87 13.0573 23.5853 12.9967 23.5317 13.006C23.429 13.027 23.3123 13.1087 23.247 13.2043L23.1933 13.2837V14.273C23.1933 15.3347 23.1933 15.3253 23.3147 15.4397C23.401 15.5213 23.4733 15.5423 24.5303 15.799L25.5267 16.0417V19.4297C25.5267 21.294 25.5197 22.82 25.5103 22.8223C25.4987 22.8223 24.6913 22.75 23.7137 22.6637L21.9333 22.505L21.9287 17.3577L21.9217 12.2127L21.8587 12.117C21.826 12.0657 21.7607 12.0073 21.714 11.984C21.6393 11.949 21.0327 11.7973 18.1907 11.1067C17.7683 11.004 17.3903 10.92 17.3507 10.92C17.1617 10.9223 16.996 11.074 16.9703 11.2723C16.9587 11.354 16.9493 11.3657 16.9073 11.354C16.506 11.2443 15.589 11.0367 15.5143 11.0367C15.3743 11.0367 15.2297 11.1277 15.169 11.2537C15.1223 11.3517 15.12 11.389 15.12 12.3037C15.12 13.3443 15.12 13.3443 15.2577 13.475C15.3253 13.538 15.4093 13.5637 16.142 13.7433L16.9517 13.944L16.9587 17.997L16.9633 22.05L16.912 22.0477C16.8817 22.0477 16.3123 21.9963 15.645 21.938L14.4317 21.826L14.4247 15.3463C14.4223 11.7833 14.427 8.86668 14.4387 8.86668C14.448 8.86668 16.1723 9.28668 18.27 9.80234ZM19.5067 12.271L21.105 12.663L21.112 17.542L21.1167 22.4233L21.0537 22.421C21.0163 22.421 20.2697 22.3557 19.39 22.2763L17.7917 22.1317L17.7847 16.9937L17.78 11.8533L17.843 11.8673C17.8803 11.8743 18.627 12.0563 19.5067 12.271ZM16.485 12.0937L16.9517 12.215L16.9587 12.6513C16.9633 12.9803 16.9563 13.09 16.9377 13.09C16.9213 13.09 16.6903 13.0363 16.422 12.971L15.9367 12.852V12.411C15.9367 12.005 15.939 11.97 15.9787 11.9723C15.9997 11.9723 16.2283 12.0283 16.485 12.0937ZM3.99 14.3803V14.8307L3.25033 15.0103C2.842 15.1083 2.50133 15.19 2.492 15.19C2.48033 15.19 2.47333 14.9917 2.47333 14.749V14.308L3.227 14.1213C3.64 14.0187 3.98066 13.9347 3.98533 13.9323C3.98766 13.9323 3.99 14.133 3.99 14.3803ZM24.787 14.1283L25.5267 14.308V14.749C25.5267 14.9917 25.5197 15.19 25.5103 15.19C25.4987 15.19 25.158 15.1083 24.752 15.0103L24.01 14.8283V14.378C24.01 14.1307 24.017 13.9323 24.0287 13.937C24.038 13.944 24.3787 14.028 24.787 14.1283ZM13.58 23.765V24.8733H8.02666H2.47333V24.2667C2.47333 23.933 2.47566 23.66 2.48033 23.6577C2.50366 23.653 13.426 22.6613 13.4937 22.659L13.58 22.6567V23.765ZM19.936 23.1467C22.9273 23.4173 25.41 23.6437 25.452 23.6507L25.5267 23.6623V24.2667V24.8733H19.9733H14.42V23.765C14.42 22.7617 14.4247 22.6567 14.4573 22.6567C14.4783 22.6567 16.9423 22.8783 19.936 23.1467Z" fill="white" stroke="white" stroke-width="0.2"/>
<path d="M11.5728 11.2327C11.0408 11.3633 10.5834 11.4823 10.5578 11.4963C10.4831 11.5383 10.3921 11.648 10.3618 11.7343C10.3454 11.788 10.3361 12.1077 10.3361 12.7377C10.3361 13.587 10.3408 13.6687 10.3804 13.755C10.4528 13.9137 10.5811 14 10.7398 14C10.7818 14 11.2484 13.895 11.7758 13.7643C12.7651 13.5217 12.8351 13.4983 12.9354 13.363C12.9821 13.2977 12.9844 13.2697 12.9914 12.3247C12.9961 11.6807 12.9914 11.3237 12.9728 11.2653C12.9331 11.1253 12.7254 10.983 12.5761 10.9923C12.5574 10.9923 12.1048 11.102 11.5728 11.2327ZM12.1794 12.3737V12.824L11.7198 12.936C11.4654 12.9967 11.2344 13.0527 11.2064 13.0597L11.1528 13.0713V12.628V12.1847L11.6614 12.0563C11.9391 11.9863 12.1701 11.9257 12.1748 11.9257C12.1771 11.9233 12.1794 12.1263 12.1794 12.3737Z" fill="white" stroke="white" stroke-width="0.2"/>
<path d="M7.56 12.215C6.96267 12.362 6.43533 12.4927 6.38633 12.5067C6.265 12.5417 6.12033 12.677 6.09 12.782C6.076 12.8334 6.06667 13.237 6.06667 13.79C6.06667 14.6347 6.07133 14.7187 6.111 14.805C6.13433 14.8564 6.174 14.917 6.19733 14.938C6.258 14.9917 6.40267 15.05 6.47267 15.05C6.50533 15.05 6.91133 14.9567 7.378 14.8424C7.84467 14.728 8.365 14.602 8.53533 14.56C8.876 14.4784 8.981 14.4177 9.044 14.2637C9.086 14.168 9.09067 12.3154 9.051 12.2104C9.02067 12.131 8.94367 12.0447 8.86667 12.005C8.72433 11.935 8.673 11.942 7.56 12.215ZM8.26 13.3444V13.7854L7.62533 13.9394C7.27533 14.0257 6.965 14.1004 6.937 14.1074L6.88333 14.1214V13.6757V13.23L6.94867 13.2137C7.301 13.1227 8.18767 12.908 8.22033 12.9057C8.25767 12.9034 8.26 12.9384 8.26 13.3444Z" fill="white" stroke="white" stroke-width="0.2"/>
</g>
<defs>
<clipPath id="clip0_4_833">
<rect width="28" height="28" fill="white"/>
</clipPath>
</defs>
</svg>
